<?xml version="1.0" encoding="utf-8" ?>
<svg baseProfile="full" height="300mm" version="1.1" viewBox="0,0,200,300" width="200mm" xmlns="http://www.w3.org/2000/svg" xmlns:ev="http://www.w3.org/2001/xml-events" xmlns:xlink="http://www.w3.org/1999/xlink"><defs /><rect fill="#222222" height="300" width="200" x="0" y="0" /><text fill="#FFFFFF" style="font-size:12px; font-family:Arial; font-weight:bold;" x="10" y="20">Benjy's Running</text><text fill="#FFFFFF" style="font-size:4px; font-family:Arial" x="10" y="280">ATHLETE</text><text fill="#FFFFFF" style="font-size:9px; font-family:Arial" x="10" y="290">Benjy</text><text fill="#FFFFFF" style="font-size:4px; font-family:Arial" x="120" y="280">STATISTICS</text><text fill="#FFFFFF" style="font-size:3px; font-family:Arial" x="120" y="285">Number: 8</text><text fill="#FFFFFF" style="font-size:3px; font-family:Arial" x="120" y="290">Weekly: 4.0</text><text fill="#FFFFFF" style="font-size:3px; font-family:Arial" x="141" y="285">Total: 95.6 km</text><text fill="#FFFFFF" style="font-size:3px; font-family:Arial" x="141" y="290">Avg: 12.0 km</text><text fill="#FFFFFF" style="font-size:3px; font-family:Arial" x="167" y="285">Min: 8.5 km</text><text fill="#FFFFFF" style="font-size:3px; font-family:Arial" x="167" y="290">Max: 22.0 km</text><polyline fill="none" points="27.70851528388448,52.19086003935081 27.826419214135967,51.575246673164656 27.796943231485784,51.344391289079795 27.590611353865825,50.88267991229077 27.29585152841173,50.49791981189628 26.91266375547275,50.26706348123844 26.35262008733116,50.07468305082875 26.11681222706102,49.920778604981024 23.287117903935723,47.72763045714237 21.72489082964603,46.380951470753644 20.015283842920326,44.68797380945762 19.131004366790876,44.07234286441235 17.981441048090346,42.994985239813104 17.12663755461108,42.41782755215536 16.979257642058656,42.263918621407356 16.802401746739633,41.87914589999127 16.743449781672098,41.41741789053776 16.831877729156986,41.14807617699262 16.949781659408472,40.99416650237981 18.128820960759185,39.72440824715886 19.337336244643666,38.26225477588014 20.103711790405214,37.531174989038846 21.223799126571976,36.06900931239943 21.93122270749882,35.26096689494443 22.550218340707943,34.68379221804207 23.198689956450835,34.491400377388345 24.613537117955275,34.375965205341345 25.998908296925947,34.33748680332792 27.118995633209124,34.14509470900521 28.062227074289694,33.87574554033927 28.799126637517475,33.91422400990268 32.57205240172334,33.79878858430311 33.86899563332554,33.87574554033927 37.31768558965996,33.56791758077452 39.70524017477874,33.68335310785915 41.031659388681874,33.837267065187916 42.03384279482998,33.837267065187916 46.278384279459715,34.375965205341345 46.77947598253377,34.5683571305708 50.93558951979503,36.64618094632169 53.32314410479739,38.41616605076706 54.325327510829084,39.224198764772154 54.796943231485784,39.68593062844593 56.064410480321385,40.6093919214909 57.3318777292734,41.68675932797487 58.71724890824407,42.994985239813104 59.80786026199348,43.956911901565036 60.868995633209124,45.26512651031953 61.87117903935723,46.53485798990005 62.31331877724733,47.18895969085861 64.22925764194224,50.805727937229676 65.14301310025621,53.19122868322302 65.29039301315788,53.65293600352015 65.79148471623193,56.73096407324192 65.82096069864929,57.615890470304294 66.05676855891943,59.73200672693201 66.4694323145086,62.19437510089483 66.64628820959479,63.81029180667247 66.76419213972986,66.23414823401254 66.88209606986493,67.27293700163136 67.0,69.08118913503131 66.94104803493246,69.61981502486742 66.88209606986493,69.85065435396973 64.31768558942713,72.8515471801511 63.020742358174175,74.4673983543471 61.84170305682346,75.73698873544345 60.1615720523987,77.73754294920946 59.74890829704236,78.1222631674027 59.33624454156961,78.2761510971759 58.9825327511644,78.23767912315088 58.687772925710306,78.08379117096774 57.89192139741499,77.50671054798295 57.36135371180717,77.08351728558773 54.82641921390314,74.62128842406673 53.61790393013507,73.81336455213022 51.4072052402189,71.77430754431407 50.198689956218004,70.81248270935612 49.43231441057287,70.08149348039296 48.96069868991617,69.42744876240613 48.43013100454118,69.00424248923082 48.07641921401955,68.96576915774494 47.75218340603169,69.08118913503131 47.45742358081043,69.42744876240613 47.280567685724236,69.7737079334911 47.074235807871446,70.3508055381244 46.3078602621099,71.42805100927944 45.15829694317654,72.65918328339467 42.446506550186314,75.77546107533271 41.827510917093605,76.62185113126179 40.70742358081043,77.85295907378895 39.97052401746623,78.73781434528064 38.70305676863063,80.43057264972595 37.9072052402189,81.16153309243964 36.43340611353051,82.73886185724405 34.340611353865825,85.3548984498484 33.603711790405214,86.16278684078134 33.3384279476013,86.39361163921421 33.04366812238004,86.43208241922548 32.631004366790876,86.27819926527445 31.45196506555658,85.3548984498484 28.150655021890998,82.46956249442883 27.35480349336285,81.66166275009164 26.028384279459715,80.62293085816782 25.409388646367006,80.04585581072024 23.139737991266884,78.2761510971759 22.078602620051242,77.27587794393185 20.486899563344195,75.92935037918505 19.337336244643666,74.81365088466555 17.92248908302281,73.7364192919049 16.831877729156986,72.69765607401496 13.648471615626477,70.04302030667895 13.20633187785279,69.65828826036886 13.058951965183951,69.42744876240613 13.0,69.04271581495414 13.147379912785254,68.61950892210007 14.41484716150444,66.77277995942859 16.920305676874705,64.19503241492203 18.158296943292953,62.848437821667176 20.486899563344195,59.84743075995357 21.75436681229621,58.50081388713443 23.021834061248228,56.92333963053534 25.26200873358175,54.38397093481035 26.470524017582648,52.80647196318023 26.794759825337678,52.498666181607405 27.620087336283177,51.84457769841538 27.97379912668839,51.382867200591136 28.2390829694923,50.88267991229077 28.91703056776896,50.228587406512816 30.361353711690754,49.03582629209268 32.631004366790876,47.61220110024442 33.25,47.342865736805834 35.25436681229621,47.11200663403724 36.19759825326037,47.18895969085861 36.7281659389846,47.11200663403724 38.172489083139226,47.11200663403724 39.43995633185841,47.18895969085861 41.945414847228676,47.65067755826749 43.713973799254745,48.34325283789076 45.482532751047984,49.2666837045399 45.83624454156961,49.343636130332015 46.484716157312505,48.7280160934024 46.86790393013507,48.227823751367396 47.427947598160245,47.689154010498896 48.046943231485784,46.57333460566588 48.990174672566354,45.3805568983953 50.43449781672098,43.99538889489486 51.11244541499764,43.302802154707024 51.878820960759185,42.225441374699585 52.5862445414532,41.45589525575633 53.4115720523987,40.22461677715182 53.853711790405214,39.87831866546185 54.384279476013035,39.72440824715886 54.67903930135071,39.87831866546185 54.94432314415462,40.186139231780544 55.00327510910574,40.37852690255386 55.03275109175593,40.64786940495833 54.88537117897067,40.95568906972767 54.20742358092684,42.14848686411278 52.82205240172334,44.033865882549435 51.28930131008383,45.76532449229853 51.02401746727992,46.11161484522745 49.727074235794134,48.45868187371525 49.43231441057287,48.88192123788758 48.783842794713564,49.65144560780027 48.45960698684212,50.6133479012351 48.43013100454118,50.921155891323 48.518558951909654,51.267439449293306 48.75436681206338,51.80610185448313 49.108078602701426,52.767996260285145 49.461790392990224,53.96074043298722 49.844978165929206,54.69177450804273 50.22816593886819,55.73060890554916 50.61135371180717,57.192665174021386 50.96506550209597,59.27031008800259 51.082969432347454,60.57844845810905 50.96506550209597,62.6175923414703 50.84716157219373,63.771817714878125 50.670305676874705,64.69519436344854 50.37554585142061,65.5800939402543 50.110262008733116,66.1956744970521 49.727074235794134,66.84972725869738 48.518558951909654,68.50408874216373 47.87008733628318,69.00424248923082 47.634279476013035,69.38897549288231 47.486899563344195,69.73523471472436 47.45742358081043,69.96607394248713 47.51637554576155,70.19691296751262 47.75218340603169,70.50469801863073 48.25327510922216,70.8509557703801 48.489082969375886,70.88942882567062 48.69541484711226,70.8509557703801 49.28493449778762,70.4277517896262 49.520742357941344,70.08149348039296 49.57969432324171,69.85065435396973 49.520742357941344,69.65828826036886 49.3144104804378,69.35050221791607 48.87227074243128,69.08118913503131 47.75218340603169,68.54256214117049 46.86790393013507,67.69614606298273 46.3078602621099,67.31141058081994 45.62991266383324,66.77277995942859 44.42139737994876,65.61856776723289 43.41921397380065,64.88756409013877 42.829694323125295,64.34892850046162 42.29912663763389,63.69486951440922 41.17903930135071,63.04080890028854 40.61899563309271,62.502169525338104 36.6397379913833,59.231835331447655 35.63755458523519,58.269964587379945 34.57641921390314,57.3850403931865 33.810043668258004,56.57706352614332 31.746724890894257,55.03805309685413 30.832969432347454,54.114642512548016 28.356986899510957,51.96000519616064 28.00327510922216,51.61372255082824 27.649563318816945,50.95963186479639 27.35480349336285,50.65182391970302 26.971615720540285,50.459443770902 26.61790393013507,50.57487187706283 26.11681222706102,51.07505975122331 25.969432314508595,51.344391289079795 25.93995633185841,51.45981900644256 26.028384279459715,51.80610185448313 26.441048034932464,52.30628738494124 26.76528384280391,52.53714192396728 27.472707423614338,52.767996260285145 27.7674672488356,52.92189903833787 29.18231441057287,54.114642512548016 31.245633187820204,55.57670777250314 32.188864628900774,56.461638056556694 32.45414847158827,56.80791431313264 32.54257641918957,57.077239974896656 32.36572052410338,57.50046545700752 31.805676855845377,58.231489684432745 31.068777292617597,59.039461464300985 30.508733624592423,59.57810793741373 29.860262008733116,60.38607557679643 29.12336244538892,61.42488746281015 28.5927947597811,62.07895209881826 27.29585152841173,63.464024777698796 25.6746724890545,65.34925085961004 25.08515283849556,66.1187270062801 25.026200873428024,66.3495694109879 25.08515283849556,66.54193792658043 25.763100436655805,67.34988415444968 26.61790393013507,68.15782789813238 29.38864628819283,70.4277517896262 30.09606986900326,71.19721306572319 31.658296943292953,72.54376487768604 33.95742358092684,74.31350819428917 34.252183406148106,74.62128842406673 34.31113537121564,74.77517840388464 34.19323144108057,74.73670591742848 34.10480349347927,74.58281591514242 34.10480349347927,74.3519807427947 34.31113537121564,73.85183717377367 34.57641921390314,73.42863802585634 35.84388646285515,71.85125337901991 36.43340611353051,70.96637491942965 37.8187772926176,69.42744876240613 38.7325327511644,68.31172166293254 41.002183406148106,65.92635818090639 41.59170305682346,65.19535535998875 41.65065502177458,64.9645119413617 41.59170305682346,64.81061621636036 41.09061135374941,64.23350644475431 41.002183406148106,64.11808433834813 41.002183406148106,64.00266218124307 41.208515284000896,63.5794471714471 41.56222707417328,63.07928309918498 41.739082969375886,62.69454085745383 41.739082969375886,62.34827235818375 41.56222707417328,62.04047775352956 41.59170305682346,61.809631563402945 42.68231441057287,60.50149932244676 42.85917030565906,60.155227933399146 42.85917030565906,59.924380087148165 42.770742358174175,59.80895608785795 42.358078602701426,59.5011585089087 41.91593886469491,58.92403707650374 41.59170305682346,58.577763608598616 41.208515284000896,58.30843948479742 40.17685589531902,57.80826537963003 39.675764192128554,57.50046545700752 38.34934497822542,56.42316288879374 37.700873362482525,56.153836556652095 36.846069869119674,55.961460436024936 36.43340611353051,55.961460436024936 35.78493449790403,56.19231176387984 35.342794759897515,56.500113218760816 35.01855895202607,56.88486453029327 34.989082969375886,57.077239974896656 35.04803493455984,57.231140229065204 35.22489082964603,57.42351542005781 35.57860262005124,57.65436546338606 36.69868995633442,58.000640148093225 37.111353711923584,58.03911508494639 37.87772925768513,57.846740344626596 38.29039301304147,57.846740344626596 38.67358078598045,57.92369025762309 38.8209606987657,58.11606494165608 38.8209606987657,58.269964587379945 38.7325327511644,58.46233901786036 38.58515283826273,58.577763608598616 38.76200873369817,58.654713307565544 38.85043668129947,58.577763608598616 38.87991266371682,58.46233901786036 38.40829694329295,58.269964587379945 38.29039301304147,58.30843948479742 38.172489083139226,58.46233901786036 38.43777292582672,59.38573432384874 39.02729257638566,60.30912638481823 39.587336244643666,60.963193798204884 39.97052401746623,61.232515201118076 40.14737991266884,61.309464122663485 40.23580786027014,61.270989664655644 40.324235807871446,61.07861729038996 40.324235807871446,60.88624477526173 40.11790393013507,59.616582643357106 39.97052401746623,59.15488580157398 39.882096069981344,59.039461464300985 39.73471615719609,58.96251187805319 39.55786026199348,58.69318814857979 39.528384279459715,58.38538926266483 39.675764192128554,58.231489684432745 39.82314410479739,58.19301477569388 40.20633187761996,58.30843948479742 41.50327510922216,58.92403707650374 42.24017467244994,59.19336056930479 42.85917030565906,59.53963322596974 43.86135371180717,60.23217717031366 43.94978165940847,60.38607557679643 43.89082969434094,60.80929572976311 43.53711790405214,61.42488746281015 43.06550218351185,62.11742643851903 42.74126637552399,63.23317983828019 42.711790392990224,63.73334361749585 42.80021834070794,64.04113623921876 42.9181222707266,64.27198046896956 43.36026200884953,64.73366832002648 44.12663755461108,65.27230312110623 44.48034934501629,65.42619857570389 45.62991266383324,65.54162010760047 46.10152838437352,65.73398921469925 46.543668122263625,66.04177949303994 47.04475982533768,66.54193792658043 47.31004366814159,67.11904262853204 47.486899563344195,67.34988415444968 48.34170305693988,68.1963013477216 48.81331877736375,68.54256214117049 49.520742357941344,69.42744876240613 50.16921397391707,69.96607394248713 50.257641921401955,69.61981502486742 50.080786026315764,69.7737079334911 50.05131004366558,69.927600751922 50.405021834070794,70.774009642686 50.61135371180717,71.04332099072053" stroke="#ffc700" stroke-linecap="round" stroke-linejoin="round" stroke-width="0.5"><title>2022-11-19 11.4km</title></polyline><polyline fill="none" points="146.7422512236517,53.351307954406366 146.77161500812508,52.89135727623943 147.09461663954426,52.69971092182095 147.47634584014304,52.163100383011624 147.56443719414528,51.93312410102226 147.56443719414528,51.511500392633025 147.41761827084702,51.243194042821415 146.77161500812508,50.74491009203484 146.15497553010937,50.47660295647802 145.06851549749263,49.36504189349944 140.66394779772963,45.68535780115053 139.13703099510167,44.19047136264271 137.52202283858787,42.925560784729896 137.2283849917585,42.580584111623466 136.7585644372739,42.158945338305784 136.67047308315523,41.92896026649396 136.641109298449,41.698974992585136 136.72920065245125,41.39232764649205 137.7569331158884,40.0507412829611 139.16639477969147,38.32583442592295 140.54649265913758,36.83090595470276 141.30995106033515,36.064272657444235 142.1908646003576,35.297637114766985 143.15986949414946,34.875986609142274 144.24632952699903,34.722658984101145 145.24469820561353,34.722658984101145 146.91843393153977,34.416003464517416 147.7993474714458,34.071015575755155 149.29690048936754,33.95601951170829 151.11745513859205,33.68769516571774 152.05709624791052,33.76435929274885 153.67210440465715,33.611031016509514 155.9918433931889,33.726027232041815 158.01794453512412,33.53436684468761 159.7797716150526,33.76435929274885 162.45187601959333,33.87935544090578 163.50897226750385,34.032683559984434 164.47797716152854,34.33933952852385 166.06362153356895,34.49266737810103 166.76835236535408,34.95265038785874 167.3849918434862,35.259305278625106 169.70473083213437,36.17926779523259 171.4078303426504,37.17589020595187 173.55138662317768,38.82414201882784 174.34420880919788,39.322448663180694 175.01957585650962,40.08907241738052 175.90048939641565,40.70236980417394 176.3703099512495,41.12401092381333 177.72104404564016,42.158945338305784 179.74714518757537,44.07547974440968 181.42088091361802,46.22198161971755 183.09461663942784,48.79009466376738 183.62316476355772,49.824998767784564 184.70962479617447,52.27808844813262 185.32626427407376,54.73115513968514 185.5905383360805,56.110995051276404 185.7667210442014,56.724254899600055 185.825448613381,57.222527468489716 185.7960848287912,57.95077028602827 185.9722675367957,58.94730980595341 186.06035889079794,59.75220434102812 186.4127243066905,62.39684038810083 186.53017944539897,64.42820935379132 186.7944535074057,66.15294421522412 186.88254486140795,66.99614378955448 186.88254486140795,68.14595701408689 187.0,69.75568704382749 186.9412724308204,69.9089941495331 186.7944535074057,70.13895463969675 186.2071778140962,70.7521816258377 184.88580750417896,72.47687482309993 183.50570962484926,74.12490437325323 182.1549755303422,75.54296800773591 181.65579119091853,75.96455301239621 180.71615008171648,77.15265255453414 179.89396411099005,77.99581670065527 179.62969004898332,78.14911898085847 179.21859706379473,78.2257700873597 178.86623164778575,78.14911898085847 178.66068515507504,78.0724678519764 177.42740619904362,77.19097825640347 174.3735725939041,74.73812202265253 173.34584013058338,74.00992590421811 172.7585644372739,73.4350328008004 172.02446982066613,72.66850669920677 171.34910277323797,72.09361065013218 170.46818923333194,71.09712117430172 169.46982055471744,70.13895463969675 169.00000000011642,69.41074572794605 168.76508972269949,69.10413084327593 168.32463295268826,68.87416944405413 167.85481239797082,68.98915016895626 167.50244698207825,69.25743833044544 167.26753670466132,69.52572621710715 166.94453507347498,70.29226152095362 166.7389885808807,70.56054834698443 165.3882544862572,72.17026352955145 162.7748776508961,75.08305631927215 159.80913539975882,78.83897813115618 159.3686786297476,79.33720860918402 159.10440456774086,79.52883546357043 158.84013050573412,79.98873934193398 158.54649265902117,80.37199195681023 158.01794453512412,80.94686982716667 157.28384991851635,81.59839655412361 156.84339314850513,82.1732717313862 156.31484502449166,82.70982075794018 155.84502446989063,83.32301829900825 154.7879282218637,84.97097957413644 153.5840130506549,86.3123357447621 153.43719412735663,86.38898446125677 153.1729200653499,86.46563315531239 152.87928221852053,86.35066010587616 152.46818923321553,86.04406506041414 150.55954322998878,84.54940907255514 149.2088091353653,83.36134309769841 147.88743882544804,82.32657156541245 146.9771615008358,81.44509629360982 145.45024469820783,80.29534147871891 142.27895595435984,77.45925801279373 140.89885807503015,76.30948569299653 139.31321370298974,74.7764480781043 133.73409461660776,70.21560809153016 133.14681892329827,69.6407066557149 133.05872756929602,69.48739939290681 133.0,69.21911146707134 133.11745513870846,68.91249635801069 134.174551386619,67.41774255823111 135.9951060358435,65.34806936068344 136.8172920064535,64.27489903845708 137.815660685068,63.163396566553274 138.3735725939041,62.66513530592783 138.84339314850513,62.013561457017204 139.98858075030148,60.748737002926646 141.28058727574535,59.02396653499454 143.89396411087364,55.804364588460885 146.41924959223252,53.08300349034835 146.8009787928313,52.69971092182095 147.2120717781363,52.50806442697649 147.41761827084702,52.3164177921135 147.65252854814753,52.00978288415354 148.2104404567508,51.05154648167081 149.61990212078672,49.90165816844092 152.2039151713252,48.21514617136563 152.9967373573454,47.793516474223 153.67210440465715,47.56353635320556 154.90538336057216,47.2568958773918 156.46166394790635,47.14190560643328 160.3964110930683,47.37188609794248 162.30505709629506,47.75518646812998 164.3898858076427,48.7134349377593 164.91843393153977,49.020073707186384 165.85807504074182,49.67167989956215 167.0326264273608,50.783239660435356 168.94127243070398,53.46629549766658 169.3817292007152,54.38619402531185 170.0277324632043,55.49773376635858 170.3800978793297,56.26431014816626 170.7911908646347,57.95077028602827 170.87928221863694,59.36892153765075 171.02610114205163,60.59542453268659 170.93800978804938,61.97523353304132 170.84991843393072,62.81844656410976 170.5562805873342,64.00660577046801 170.32137031003367,65.42472421535058 170.0277324632043,66.26792613533325 169.76345840131398,66.84283497810247 169.52854812401347,67.14945251130848 169.23491027741693,67.34108828715398 168.7944535074057,67.41774255823111 166.76835236535408,67.41774255823111 166.53344208805356,67.37941542550107 166.181076672161,67.18777967774076 163.71451876033098,65.30974192498252 163.1859706362011,64.81148474951624 162.92169657431077,64.46653691865504 162.86296900489833,64.23657144556637 162.92169657431077,63.92995050046011 165.1533442089567,61.09368973292294 165.85807504074182,60.44211197254481 166.23980424157344,60.250471146195196 166.7389885808807,60.09715838404372 170.14518760202918,59.56056300949422 170.32137031003367,59.48390643761377 170.40946166403592,59.36892153765075 170.46818923333194,59.13895158638479 170.43882544862572,58.71733948419569 170.35073409450706,58.14241279597627 170.11582381732296,57.64414197811857 169.64600326272193,56.187652610999066 169.26427406212315,55.344418220513035 168.47145187610295,54.30953593799495 167.3849918434862,52.69971092182095 166.91517128876876,52.163100383011624 165.1533442089567,50.36161409984925 164.12561174551956,49.74833934495109 163.27406199020334,49.326712117443094 159.04567699844483,47.908506458916236 158.13539967371617,47.793516474223 156.93148450250737,48.10015632136492 156.75530179450288,48.253476110083284 156.72593800991308,48.406795809132745 156.93148450250737,50.09330657139071 156.93148450250737,51.20486454173806 156.84339314850513,51.77980646741344 156.637846655678,52.35474713027361 156.10929853178095,53.274649564089486 155.25774877658114,54.46285209004418 153.70146818936337,55.957679864775855 153.43719412735663,56.1493238339317 153.2022838499397,56.225981382332975 152.93800978804938,56.225981382332975 152.585644371924,55.9960086698411 150.50081566080917,53.926245165552245 148.82707993488293,52.546393737284234 148.09298531815875,52.08644164475845 147.71125611744355,51.97145349532366 147.32952691696119,52.00978288415354 147.09461663954426,52.12477101676632 146.85970636224374,52.39307646287489 147.41761827084702,52.62305234075757 149.70799347467255,54.42452306044288 150.91190864611417,55.53606263877009 151.88091353990603,56.30263890826609 153.4078303426504,57.79745617695153 155.66884176188614,59.63721955890651 157.66557911911514,61.55362599910586 159.54486133763567,62.933429948752746 160.45513866236433,63.814967553538736 161.04241435567383,64.54319203144405 161.48287112556864,64.96479475058732 162.42251223500352,65.65468864474678 165.0065252854256,67.83934064797359 165.5938009787351,68.29926506232005 165.85807504074182,68.64420784293907 165.9755301795667,69.06580395734636 166.12234910274856,70.7138549813244 166.09298531804234,71.28875406036968 165.9755301795667,71.5570398651762 164.83034257765394,72.89846476534149 163.47960848291405,74.35486116015818 162.12887438829057,76.07953062301385 160.45513866236433,78.0724678519764 159.7797716150526,78.76232720422558 159.30995106045157,79.06893077725545 158.9869494291488,79.10725619865116 158.75203915173188,78.99227991764201 156.60848287120461,77.42093235009816 154.7879282218637,76.2711598619644 153.73083197395317,75.50464206445031 152.64437194122002,74.50816557253711 151.55791190860327,73.24340148581541 150.588907014695,72.32356922121835 147.32952691696119,69.56405303557403 144.62805872759782,67.37941542550107 142.89559543225914,65.73134340951219 141.25122349103913,64.38988178342697 140.2234910277184,63.50834611465689 139.51876019581687,62.78011875791708" stroke="#ffdd00" stroke-linecap="round" stroke-linejoin="round" stroke-width="0.5"><title>2022-11-18 10.3km</title></polyline><polyline fill="none" points="27.858862144406885,112.17376331437845 27.79978118161671,111.9038432596717 27.38621444196906,111.2097618484404 27.031728665228,110.82416027376894 23.723194748396054,108.2020545929845 21.12363238504622,105.88841025051079 19.70568927784916,105.00150786267477 18.080962800886482,103.49762307383935 16.98796498903539,102.57215124252252 16.692560174968094,102.26365990916383 16.544857767992653,102.03229117201408 16.485776805202477,101.64667615827057 16.515317286597565,101.3767453127075 16.574398249504156,101.1453757963609 16.75164113775827,100.91400607657852 17.933260393794626,99.68003080459312 18.642231947393157,98.83166945059202 19.321663019713014,97.86761913975351 19.70568927784916,97.44343588486663 22.15754923399072,95.01400953310076 22.60065645503346,94.74407188818441 23.04376367619261,94.55125911528012 24.136761487927288,94.39700879520387 25.05251641140785,94.12707051774487 25.525164113612846,94.08850788403652 31.37417943100445,93.93425729303272 32.88074398250319,93.74144392699236 35.09628008760046,93.8185692904517 35.834792122477666,93.70288123693899 36.78008752735332,93.70288123693899 37.28227571118623,93.66431854106486 39.113785557914525,93.74144392699236 40.23632385127712,93.5871931326401 41.94967177230865,93.74144392699236 43.101750546949916,93.7800066115451 46.321663019713014,94.35844620116404 46.646608315058984,94.43557138365577 48.00547045934945,95.01400953310076 49.12800875271205,95.36107181280386 50.90043763665017,96.32513130072039 53.352297592908144,98.21467765831039 54.0021881837165,98.67742163813091 55.0656455141725,99.68003080459312 57.51750547043048,101.68523768510204 59.88074398250319,103.80611296158168 60.353391684941016,104.34596939533367 61.09190371981822,105.42567894252716 61.85995623632334,106.35114074530429 62.77571115968749,107.70076671047718 63.45514223189093,109.16606706948369 64.48905908083543,110.97840097144945 64.93216630176175,112.17376331437845 66.14332603930961,116.68524327198975 66.17286652082112,117.14795479504392 66.08424507640302,119.42294129144284 66.14332603930961,120.42547147494042 66.26148796488997,121.11952859707526 66.4387308532605,123.39448078451096 66.58643326035235,124.16564655760885 66.6750547044212,125.70797132933512 67.0,128.48413315665675 67.0,128.94682394945994 66.88183807430323,129.60230118097388 66.64551422314253,130.02643263791106 65.93654266942758,130.7975789915654 64.22319474827964,133.1110045047244 62.09628008748405,135.38585310991039 60.53063457319513,137.23656290379586 59.79212253820151,137.9305757235561 59.52625820564572,138.08480054629035 59.26039387297351,138.12335673792404 58.96498905890621,138.04624434912694 58.55142231937498,137.77635081059998 57.399343544850126,136.85099943587556 55.8632385119563,135.69430564547656 54.23851203499362,134.34482313587796 52.40700218803249,132.53265003149863 50.92997811816167,131.2988229105831 50.13238512026146,130.9518079913105 49.30525164108258,130.1421047349868 48.98030634573661,129.56374374197912 48.65536105027422,129.216726536426 48.47811816178728,129.1010540330899 48.241794310626574,129.0239390024508 47.82822757109534,129.1010540330899 47.47374179423787,129.37095646202215 47.207877461682074,129.67941604214138 46.79431072215084,130.45056341189775 46.41028446378186,131.02892245727708 45.64223194739316,131.7229516353982 44.87417943100445,132.76399197321734 44.28336980298627,133.4194597043679 43.30853391671553,134.57616348579177 42.097374179400504,136.1955402449821 39.35010940907523,139.39570789324353 38.818380743963644,139.93549137489754 37.459518599440344,141.59339086568798 36.07111597363837,143.5982786346285 35.12582056876272,144.71638249224634 34.44638949667569,145.48748583547422 33.56017505470663,146.22003192038392 33.20568927784916,146.4128068673599 32.70350109401625,146.4128068673599 32.46717724285554,146.29714191617677 30.57658643310424,144.986268919165 29.48358862148598,144.02238755321014 28.597374179400504,143.13561358104926 27.829321663011797,142.51872557849856 26.854485776741058,141.63194654372637 25.436542669543996,140.55238542781444 22.187089715502225,137.7377945681801 20.6805251641199,136.34976608370198 20.001094091916457,135.61719254538184 18.93763676157687,134.6532768906036 18.14004376367666,134.0363690200611 17.253829321591184,133.4194597043679 15.451859956257977,131.87718009314267 14.949671772425063,131.2988229105831 14.890590809518471,130.9518079913105 14.654266958357766,130.56623532253434 13.561269146506675,129.79508829148836 13.088621444185264,129.37095646202215 13.0,129.1781690409407 13.0,129.0239390024508 13.0,128.8697088737972 13.118161925696768,128.67692108577467 15.451859956257977,125.97787723570946 16.4266958424123,124.74401940553798 17.903719912515953,123.08601384289796 19.026258205645718,121.5822323288885 19.882932166336104,120.69538279538392 20.769146608305164,119.65429474951816 22.718818380730227,116.95515842593159 24.01859956223052,115.528460907517 25.170678336988203,114.33311379243969 25.87964989047032,113.40768004127312 26.559080962790176,112.63648276441381 27.681619256036356,111.74960310416645 28.065645514288917,111.32544221056742 28.479212253703736,110.78560008533532 29.572210065554827,109.7444728614646 30.665207877522334,108.97326485652593 32.93982494517695,107.58508475596318 33.53063457319513,107.31515999764088 33.97374179423787,107.19947787371348 36.60284463898279,106.92955272019026 39.261487964889966,107.04523496268666 40.53172866511159,107.19947787371348 41.80196936533321,107.43084207078209 42.9245076586958,107.8164486141759 43.39715536101721,108.04781226921477 45.93763676146045,109.62879180462915 46.764770240639336,110.3228773829178 47.916849015280604,111.5953628581774 49.03938730841037,113.06064154626802 49.48249452956952,113.83183758097584 49.955142231774516,114.7572698412987 50.28008752735332,115.56702040144592 50.5754923413042,116.53100591700058 50.92997811816167,118.45896636191173 51.107221006648615,120.38691269222181 51.04814004362561,120.84961771138478 50.84135667397641,121.42799784205272 50.72319474827964,123.2016889883962 50.516411378397606,124.28132122883108 50.368708971422166,125.39950709755067 50.01422319468111,126.44057243163115 49.275711159571074,127.82865314217634 48.65536105027422,128.52269075374352 48.44857768039219,128.71547865465982 48.1827133478364,128.75403621789883 47.82822757109534,128.63836351124337 46.942013129009865,127.86721083518933 46.17396061262116,127.3659603848646 44.312910284497775,125.66941332005081 43.16083150985651,124.78257755021332 42.215536104980856,123.93429706283496 40.82713347917888,122.93178023674409 39.76367614872288,121.89070103183622 36.95733041584026,119.46150021522772 34.712253829231486,117.64922469423618 33.38293216621969,116.33820909622591 30.842450765776448,114.33311379243969 29.631291028345004,113.5233594380552 27.977024069870822,111.98096330353292 27.740700218826532,111.94240328430897 27.56345733033959,111.98096330353292 26.32275711162947,112.79072240059031 25.643326039309613,113.56191922572907 24.993435448617674,114.60303135713912 24.520787746063434,115.60557988990331 24.16630196920596,116.14541213429766 23.69365426688455,116.64668394179898 22.7483588620089,117.57210631034104 22.009846827131696,118.69032066682121 21.68490153166931,119.1530286669149 20.769146608305164,119.88564800421591 20.207877461682074,120.54114778895746 19.617067833663896,121.5436737156706 19.587527352268808,121.73646672564792 19.646608315058984,121.96781815114082 19.882932166336104,122.19916937343078 20.769146608305164,122.89322182099568 22.452954048174433,124.31987944128923 23.36870897153858,124.93681007256964 24.461706783389673,125.9007612906571 25.347921225358732,126.82615114067448 28.774617067887448,129.56374374197912 34.32822757109534,134.61472019099165 35.687089715502225,135.65574909822317 37.105032822699286,137.00522489077412 38.43435448571108,138.08480054629035 39.23194748349488,138.933035457012 39.29102844640147,139.16437177668558 39.261487964889966,139.31859587700455 39.113785557914525,139.51137587529956 38.75929978105705,139.8198235789896 38.37527352303732,139.97404729548725 38.13894967187662,139.89693544851616 36.36652078782208,138.77881113099284 35.509846827131696,138.16191292379517 34.47592997807078,137.54501327170874 32.28993435448501,135.69430564547656 32.024070021812804,135.54007942290627 31.7877461706521,135.5015228530683 31.610503282165155,135.61719254538184 30.369803063455038,136.8895558080112 27.71115973731503,140.1282709216175 26.82494529534597,140.97649925109 26.618161925580353,141.01505501926295 26.23413566732779,140.93794347712537 25.76148796500638,140.59094125809497 25.141137855593115,140.05115911981557 23.989059081068262,139.16437177668558 21.862144420156255,137.31367552955635 20.44420131284278,136.04131431601127 19.55798687087372,134.92317362956237 19.498905908083543,134.6532768906036 19.52844638947863,134.34482313587796 19.617067833663896,134.15203935583122 21.064551422256045,132.5712070358568 23.339168490143493,129.79508829148836 24.01859956223052,128.83115132743842 24.1072210065322,128.56124834527145 24.07768052513711,128.4070179455157 23.841356673976406,127.71298002899857 23.575492341420613,127.32740261839353 22.452954048174433,126.59480398302549 21.389496717602015,125.97787723570946 19.79431072191801,124.89825195036246 18.908096280065365,123.89573879391537 18.67177242890466,123.4715974634455 18.612691466114484,123.2016889883962 18.67177242890466,122.70042965796893 19.114879649830982,121.92925959432614 20.148796498775482,120.81105899080285 22.216630196897313,118.34328913327772 24.40262582048308,115.48990140782553 25.584245076635852,114.02463623671792 25.76148796500638,113.71615831978852 25.87964989047032,113.44623984588543" stroke="#ffdc00" stroke-linecap="round" stroke-linejoin="round" stroke-width="0.5"><title>2022-11-17 10.3km</title></polyline><polyline fill="none" points="143.54664484458044,116.1174756216933 144.1653027823195,115.6944786781678 144.5188216039678,115.3868441094528 144.87234042561613,114.886937166797 146.3158756137127,113.07957335773972 147.84779050736688,111.92593038021005 148.02454991824925,111.61829139693873 147.99509001639672,111.38756192300934 147.8772504092194,111.15683224642999 147.61211129301228,110.88764736740268 147.31751227506902,110.69537228505942 146.4926350247115,110.34927678180975 146.0801963992417,110.04163595175487 143.92962356796488,108.34960494367988 143.42880523740314,107.81122915490414 142.8396072014002,107.50358535154373 142.10310965636745,107.00366340231267 140.98363338795025,106.08072807270219 139.89361702126916,105.23470117105171 139.42225859255996,104.73477490257937 137.4779050736688,103.00425354731851 136.88870703766588,102.19667301228037 136.8003273323411,102.0043915664719 136.8003273323411,101.73519730565022 136.918166939402,101.46600276901154 137.71358428813983,100.38922186294803 138.98036006547045,98.96632603617036 139.68739770865068,98.04336245844024 141.2782324058935,96.31279700659798 142.19148936180864,95.1590803693689 142.54500818334054,94.85142174334032 142.92798690672498,94.65913491908577 143.95908346981741,94.50530535820872 148.23076923086774,94.12073106181924 149.1145662846975,94.00535866315477 153.12111292977352,93.96690118566039 154.918166939402,93.81307121933787 155.8019639934646,93.65924116279348 157.39279869082384,93.8515287193004 159.33715220948216,93.65924116279348 160.3977086743107,93.697698685457 161.57610474643297,93.62078363468754 163.25531914900057,93.697698685457 164.31587561382912,93.8515287193004 165.7594108020421,94.19764596616733 166.61374795425218,94.50530535820872 168.23404255334754,95.19753767224029 170.1194762684172,96.0435969113023 171.1211129296571,96.58199682593113 174.33224222587887,99.04323952124105 175.4811783960322,100.27385221826262 176.65957446803804,101.11989510222338 177.720130932983,101.77365364556317 178.9279869068414,102.85042887504096 179.78232405893505,103.46572702383855 180.1653027823195,103.85028763479204 182.58101473003626,107.61895182004082 183.34697217680514,108.58033708677976 183.70049099845346,109.34944276607712 184.05400981998537,110.34927678180975 184.58428805239964,111.3106520533911 185.17348608840257,112.73348099659779 185.3207855974324,113.27184669455164 185.49754500819836,114.5793016521202 185.82160392799415,115.92520436813356 185.9983633387601,117.57873254810693 186.17512274964247,118.84771223034477 186.08674304420128,119.57833411445608 186.08674304420128,120.00132480257889 186.58756137476303,124.15428810557933 186.6759410802042,125.8462172911386 186.61702127673198,126.76908316183835 186.79378068749793,127.46123043689295 187.0,129.07623365178006 186.82324058911763,129.88373153514112 186.70540098194033,130.11444476014003 185.40916530275717,131.76788360837963 184.8788870704593,132.65227685909485 184.11292962357402,133.57511881532264 183.05237315874547,134.80556971314945 181.9623567921808,135.76685546612134 180.13584288058337,137.8432206857833 179.7528641570825,138.0739269190817 179.36988543369807,138.15082895182422 178.98690671031363,137.99702486381284 176.63011456641834,136.26672266723472 175.18657937820535,134.8440212108253 174.27332242240664,134.07499018777162 173.74304418987595,133.72892549278913 172.97708674310707,132.95989120480954 171.97545008186717,132.1908546651539 171.18003273336217,131.42181587356026 170.7675941081252,131.2295558238402 169.8837970540626,130.42206207819982 169.70703764318023,130.22980129660573 169.53027823241428,129.76837484672433 169.4124386253534,129.65301810755045 168.4402618658496,129.1531383190595 168.204582651495,129.1146859882574 168.02782324061263,129.1531383190595 167.4386252046097,129.65301810755045 167.26186579372734,129.88373153514112 167.05564648134168,130.34515778237255 166.73158756142948,130.8065832190914 165.84779050736688,131.65252774750115 164.49263502459507,133.34440863021882 163.34369885444175,134.61331214028178 162.607201309409,135.6515013614553 161.2520458266372,137.11264960974222 160.3977086743107,138.2661819588684 159.6022913256893,139.15055332885822 159.13093289698008,139.61196329636732 158.4828150573885,140.45787946504424 157.39279869082384,141.64984762403765 156.597381342086,142.8418103737058 155.18330605572555,144.72586949460674 154.41734860895667,145.61021911533317 153.97545008186717,146.03316788139637 153.62193126033526,146.3023167415813 153.2389525368344,146.37921636528336 152.94435351889115,146.34076655618264 152.17839607212227,145.91781828537933 150.73486088379286,144.76431953997235 148.61374795413576,142.99561162485043 147.70049099833705,142.0343523278134 146.99345335515682,141.45759506101604 146.4042553191539,141.034638926998 144.69558101485018,139.53506169145112 141.80851063830778,137.26645421568537 140.07037643215153,135.536147206265 139.74631751235574,135.03627861468703 139.65793780691456,134.7286667008011 139.68739770865068,134.53640907182125 139.74631751235574,134.26724815461785 139.98199672671035,133.88273208017927 141.3960720130708,132.1139508872293 142.3682487725746,131.0372956333158 143.57610474631656,129.5376613176777 144.54828150570393,128.1918283594714 144.5188216039678,128.07647092777188 144.22422258590814,127.96111344554811 143.95908346981741,127.96111344554811 143.81178396078758,127.99956594521063 143.4877250409918,128.23028082534438 140.07037643215153,132.30621028953465 138.89198036014568,133.53666713190614 138.53846153849736,133.80582879771828 138.39116202946752,133.8442804417573 138.15548281511292,133.80582879771828 137.65466448455118,133.53666713190614 134.0016366612399,130.57587060207152 133.4124386253534,129.99908817294636 133.11783960729372,129.57611358663416 133.0,129.1531383190595 133.11783960729372,128.8839718850504 134.0016366612399,127.88420842919732 135.41571194771677,126.0000284947455 136.59410801972263,124.6541774084908 137.50736497563776,123.73130410624435 139.39279869070742,121.3471997322049 140.6006546644494,120.1551394292037 142.66284779051784,117.38646236454952 144.19476268417202,115.80984154852922 146.02127659576945,113.57948374073021 147.081833060598,112.50275250241975 148.02454991824925,111.92593038021005 148.34860883804504,111.84902066815994 148.55482815066352,111.88747552692075 149.3207855974324,112.46429773370619 151.05891980358865,113.4256652626791 151.58919803611934,113.81021128891734 153.26841243868694,115.61757006973494 153.76923076924868,115.88675010055886 154.12274959101342,116.34820094017778 156.2438625205541,118.00172645685961 159.10147299501114,120.57812918833224 159.57283142395318,121.11647880545934 160.4860883797519,121.88554777286481 164.286415712093,124.9618011220009 164.55155482818373,125.07715992169688 165.11129296245053,125.19251867051935 165.70049099845346,125.42323601653334 166.37806873989757,125.80776447613607 167.82160392787773,127.11515702737961 168.26350245496724,127.57658813876333 168.38134206226096,127.84575591265457 168.35188216052484,128.03801843937254 168.23404255334754,128.3456381894648 167.556464811787,129.72992260582396 167.3207855974324,130.11444476014003 166.4075286416337,131.1141997264058 165.90671031107195,131.57562381200842 163.5204582652077,134.30569973113597 160.1620294598397,138.57378972956212 159.13093289698008,139.65041409051628 158.77741407544818,139.88111873646267 158.51227495912462,139.91956949117593 157.62847790517844,139.30435674148612 156.597381342086,138.91984804114327 155.97872340423055,138.3815349150682 155.21276595757809,137.9201227859594 153.91653027827851,136.99729609620408 152.53191489365418,135.84375817430555 151.2062193126185,134.45950598065974 149.05564648122527,133.07524649152765 147.9656301146606,131.8063355507329 147.5237315875711,131.38336387492018 145.4026186580304,129.76837484672433 144.7250409167027,129.1146859882574 144.10638297873084,128.6148051751661 143.04582651390228,127.38432527414989 142.51554828160442,126.88444116778555 141.98527004907373,126.53836699825479 141.10147299524397,126.0769340627885 140.33551554835867,125.57704746793024 139.62847790517844,124.88489522741293 139.245499181794,124.34655333479168 138.5679214403499,123.11605343632982 138.5679214403499,122.84688081513741 138.68576104741078,122.50080132536823 139.27495908353012,121.77018757144106 140.30605564650614,120.73194347735262 141.30769230762962,119.3476116337697 143.6350245499052,116.54047188383993" stroke="#4dd2ff" stroke-linecap="round" stroke-linejoin="round" stroke-width="0.5"><title>2022-11-16 8.5km</title></polyline><polyline fill="none" points="16.197175448178314,162.42717795213684 16.343834872357547,162.08257529319962 16.519826181349345,161.89112917514285 17.047800108557567,161.4699472223292 17.693101575248875,160.78073892678367 19.54101032053586,158.25362629967276 21.74090168380644,155.68819910325692 22.2395437262021,155.19042673139484 22.47419880493544,155.03726581076626 23.09016838669777,154.80752426187973 24.938077131984755,154.65436311703525 26.639326452976093,154.30975021317136 27.460619228659198,154.04171764061903 27.988593155751005,154.00342725060182 29.425855513312854,154.04171764061903 30.54046713747084,153.92684645397821 33.18033677339554,153.96513685508398 35.08690928830765,153.85026563482825 36.553503530682065,153.96513685508398 37.814774579019286,153.85026563482825 40.19065725139808,153.888556047139 41.07061379682273,153.81197521678405 42.038565996685065,153.81197521678405 46.29168929916341,154.61607281689066 46.526344378013164,154.6926534117374 47.75828354153782,155.38187775577535 49.95817490492482,156.26255066256272 51.36610537744127,157.10493066723575 52.42205323185772,157.8324384870648 53.80065181979444,158.98113092329004 54.47528517106548,159.78521262580762 54.62194459536113,160.05323931050953 54.915263443719596,160.32126572038396 57.14448669203557,161.85283993478515 58.84573601302691,163.26953809565748 59.520369364414364,163.92045089314342 60.13633894629311,164.64793974923668 61.280282455147244,166.1412000072014 62.394894079188816,167.78760527836857 63.27485062472988,168.8213893363427 63.39217816409655,169.012830379972 63.92015209130477,170.39120175677817 64.85877240623813,172.45874519803328 65.56273764255457,175.3685934568348 65.7093970667338,176.28748617949896 65.91472026077099,178.9675715098274 66.1787072243169,180.42246347141918 66.23737099405844,181.30305204197066 66.47202607279178,182.6813586340577 66.47202607279178,184.3276597642689 66.56002172734588,184.8636625468207 66.79467680607922,185.8973790962482 66.85334057582077,186.66309242416173 66.85334057582077,187.54365997947752 67.0,188.99850422656164 66.97066811518744,189.7259233147779 64.94676806079224,192.5590099504625 64.00814774574246,193.78411898951163 63.27485062472988,194.6263781246089 61.954915806651115,195.9663302487461 59.81368821288925,198.2250911448209 59.57903313415591,198.37822677072836 59.34437805530615,198.37822677072836 59.021727322018705,198.30165896905237 58.78707224340178,198.14852329841233 58.200434546452016,197.65083174960455 56.7338403040776,196.61716166033875 55.35524171649013,195.50691886537243 52.099402498686686,192.63557943343767 51.33677349262871,191.7933138864464 50.77946768060792,191.37218009558273 49.547528517083265,190.30020011300803 49.400869092787616,190.10877465372323 49.01955458999146,189.3430714152637 48.696903856587596,188.92193367841537 48.403585008112714,188.807077814301 48.13959804456681,188.84536310794647 47.75828354153782,189.1899304986 47.4942965778755,189.57278262227192 47.11298207496293,190.33848518811283 44.619771862984635,193.28641913455795 43.24117327539716,195.27721287094755 42.4785442694556,196.23431984966737 40.86529060290195,198.37822677072836 40.10266159684397,199.25875487850863 39.16404128191061,200.02442908423836 38.57740358496085,200.75181750324555 36.37751222157385,203.20195308225811 35.380228136782534,204.54186126764398 34.47093970666174,205.3840857562609 33.44432373705786,206.14974202853045 33.18033677339554,206.18802478321595 32.32971211289987,205.84347978851292 30.217816404183395,204.3504462329438 28.692558392183855,203.01053706670064 27.54861488332972,201.97688816220034 26.31667571957223,200.98151868899004 25.583378598559648,200.29241452662973 24.703422053135,199.64159226164338 23.148832156322896,198.2250911448209 21.77023356873542,197.15313925369992 18.07441607816145,193.8606881138694 15.962520369328558,192.17616219862248 14.261271048337221,190.72133563025272 13.117327539250255,189.57278262227192 13.0,189.3430714152637 13.058663769741543,188.883648396004 13.293318848358467,188.53908060188405 14.202607278595679,187.58194545804872 15.669201520970091,185.66766466057743 16.31450298742857,184.90194841779885 17.751765344874002,183.37050920561887 19.159695817506872,181.72420204919763 19.59967409016099,181.1116199964017 20.596958174952306,180.00131136763957 21.6822379140649,178.4698434540769 22.063552417093888,178.0486882054538 22.50353068986442,177.39781057773507 23.266159695689566,176.5937830360781 23.73546985327266,175.9811889641278 24.732753937947564,174.9857205360895 25.87669744703453,173.53079832403455 26.873981531709433,172.53532056708355 27.51928299840074,172.1141557599476 27.900597501313314,171.65470246909535 28.164584464859217,171.0803847204661 28.60456273762975,170.6592175695696 29.807170016225427,169.66372888005571 31.743074415950105,168.36193025964894 33.44432373705786,167.5961633376719 34.73492667032406,167.21327903561178 35.99619771866128,166.98354818520602 37.5214557305444,166.98354818520602 39.222705051652156,167.17499057459645 39.66268332430627,167.25156749106827 40.48397609998938,167.48129810587852 41.86257468757685,167.749316901376 42.94785442692228,168.13220041853492 44.619771862984635,169.05111857200973 45.99837045080494,170.04660959375906 46.848995111417025,170.8123693392845 48.462248777854256,172.45874519803328 48.99022270506248,173.26278545460082 49.34220532316249,174.10511069055065 49.75285171100404,174.83257121071802 50.28082563832868,175.90461460410734 50.75013579579536,177.282949651737 50.77946768060792,177.47438450038317 50.83813145023305,178.50813026126707 50.66214014124125,179.50358527951175 50.86746333504561,180.4607499927224 50.955458989716135,181.8773473383044 50.89679521985818,182.52821381588 50.66214014124125,183.2939370094973 50.07550244429149,185.43795002321713 49.57686040189583,186.8545204057882 48.90222705050837,188.00308535300428 48.403585008112714,188.6539365836652 48.19826181430835,188.807077814301 47.84627919609193,188.807077814301 47.55296034750063,188.61565126196365 46.87832699622959,188.04137076428742 46.05703422043007,187.4670890053967 45.089082020684145,186.58652119227918 44.12112982082181,185.85909337102203 42.83052688755561,184.6722331077326 42.71319934807252,184.4425175958895 42.68386746337637,184.2893738091807 42.742531232885085,184.05965796101373 42.94785442692228,183.67679776556906 44.23845736007206,182.29849642052432 45.294405214488506,180.9201878105232 45.822379141813144,180.42246347141918 46.526344378013164,180.1161710996821 47.17164584470447,179.92473818498547 49.1368821291253,179.7333051302703 51.160782183520496,179.65673186915228 52.56871265603695,179.50358527951175 53.184682237915695,179.46529861819 56.26453014661092,179.00585824417067 59.05105920683127,178.43155664135702 62.48288973385934,178.20183564699255 63.94948397600092,177.97211445090943 64.74144486698788,177.93382756525534 65.12275936990045,177.81896687476547 65.21075502445456,177.6658192088653 65.18142313964199,177.43609754182398 65.00543183053378,177.20637567303493 64.59478544269223,177.1298016718938 62.424225964117795,177.47438450038317 60.34166214009747,178.01040133097558 58.11243889189791,178.39326982287457 56.7338403040776,178.4698434540769 55.765888104215264,178.622990649048 54.35795763169881,178.622990649048 52.80336773477029,178.81442451674957 49.547528517083265,179.0441449728678 48.31558935355861,179.19729183142772 46.90765888104215,179.46529861819 45.793047256884165,179.5801585856243 45.23574144486338,179.84816497997963 44.70776751753874,180.34589041219442 44.179793590446934,181.18819283141056 41.95057034213096,183.79165588296019 41.30526887555607,184.6722331077326 40.48397609998938,185.9739505299367 39.60401955456473,186.96937712762156 38.665399239514954,188.1179415702063 37.78544269409031,189.07507475209422 36.49483976105694,190.18534485428245 36.11352525791153,190.68305061128922 34.82292232476175,191.9847381125728 30.511135252541862,197.34455955648446 28.985877240542322,198.83763310997165 28.399239543592557,199.56502482987707 27.284627919550985,200.79010104821646 27.02064095600508,200.98151868899004 26.84464964689687,200.98151868899004 26.34600760450121,200.71353395277401 25.87669744703453,200.56039969445555 24.732753937947564,199.56502482987707 23.73546985327266,198.91420075469068 22.122216186719015,197.61254774514236 19.45301466586534,195.20064416134846 19.277023356873542,194.93265350113506 19.306355241686106,194.66466256629792 19.45301466586534,194.35838687591604 20.567626290023327,193.01842651265906 22.50353068986442,190.72133563025272 25.02607278653886,187.84994365141029 25.55404671363067,187.1225193446735 26.287343834759668,186.24195037124446 28.076588810421526,183.6002256591746 29.777838131412864,181.41791120223934 31.18576860392932,179.92473818498547 32.30038022820372,178.5464170628984 34.38294405199122,176.40234754278208 35.26290059753228,175.33030619003694 35.99619771866128,174.29654786581523 36.553503530682065,173.07134752249112 36.93481803359464,172.61189591375296 37.08147745789029,172.26730667735683 37.2574687669985,171.53983902023174 37.492123845848255,170.161473698623 37.55078761547338,168.43850682850461 37.462791960919276,166.90697119032848 37.492123845848255,166.10291138920002 37.40412819117773,165.41371530576725 37.228136882185936,164.83938384868088 37.16947311244439,164.49478436875506 37.28680065181106,163.4992722091847 37.228136882185936,161.58481509488774 36.90548614889849,159.0194205841981 36.90548614889849,155.76477938410244 36.99348180333618,155.22871694742935 36.87615426396951,154.50120188246365 36.84682237915695,154.4629115598509 36.49483976105694,154.4629115598509 36.20152091246564,154.61607281689066 36.11352525791153,154.84581453402643 36.08419337309897,155.38187775577535 36.20152091246564,156.64545100109535 36.289516567019746,158.59823400518508 36.553503530682065,160.39784464420518 36.64149918523617,161.69968291703844 36.58283541549463,163.80558404664043 36.67083106993232,166.37093159765936 36.81749049422797,168.13220041853492 36.84682237915695,169.51057643757667 36.72949483979028,171.04209682552028 36.49483976105694,172.26730667735683 36.406844106386416,172.91819707598188 35.966865833848715,173.79881091869902 35.028245518682525,175.13886977161746 34.14828897337429,176.05776330156368 33.7669744703453,176.28748617949896 33.44432373705786,176.28748617949896 33.18033677339554,176.2109119092638 31.772406300879084,175.1771570665005 30.393807713175192,174.37312269653194 28.10592069523409,172.07586801645812 27.665942422579974,171.46326335973572 27.25529603473842,171.0803847204661 26.873981531709433,170.8123693392845 26.228680065018125,170.5060657101858 25.114068440976553,169.74030506770941 24.527430744259618,169.12769493894302 24.02878870186396,168.74481287962408 22.415535035310313,167.749316901376 18.04508419323247,164.15018443472218 16.754481260082684,162.84835836317507 16.549158066161908,162.73349104559748 16.13851167843677,162.8100692629523 15.405214557307772,163.34611615596805" stroke="#ffc100" stroke-linecap="round" stroke-linejoin="round" stroke-width="0.5"><title>2022-11-15 11.8km</title></polyline><polyline fill="none" points="133.55447803763673,166.12852352971095 133.58528237300925,165.76662299520103 133.67769537935965,165.5655669364496 134.72504278377164,163.99732462622342 136.23445521958638,162.22801485692617 136.72732458647806,161.74547385022743 138.051911009592,160.25763374139206 138.91443240153603,159.01105879453826 139.6845407873625,158.2068138899922 140.1158014832763,157.8449029144249 140.63947518530767,157.5232038689137 141.13234455219936,157.36235420487355 144.08956075285096,156.8798046473239 145.72219053050503,156.96022963244468 146.49229891609866,156.8798046473239 147.0775812891079,156.96022963244468 148.1865373646142,156.92001714278013 153.88533941819333,156.43746680786717 155.51796919573098,156.35704166957294 156.93496862519532,156.35704166957294 160.0462065031752,156.63852955057519 161.37079292652197,156.59831701379153 162.51055333705153,156.71895460633095 163.6195094124414,157.00044211614295 164.5436394752469,157.4829914618167 166.6691386194434,158.16660158289596 166.94637763826177,158.24702619115124 167.56246434675995,158.16660158289596 167.8088990302058,158.2068138899922 169.04107244731858,158.76978557056282 171.2589845978655,160.25763374139206 172.5527666856069,161.22272013613838 173.50770108401775,162.02695620714803 174.06217912142165,162.63013171459897 174.15459212777205,162.75076665720553 174.185396463261,163.1126711667166 174.06217912142165,163.07245957816485 174.46263548196293,163.27351746227941 176.80376497434918,165.00260918895947 177.4814603535924,165.64598937760456 179.144894466619,166.9729562557186 180.00741585844662,167.77717548518558 180.56189389619976,168.34012754430296 181.48602395888884,169.46602820037515 183.76554478041362,173.56748440794763 184.2892184825614,174.65315373818157 184.87450085568707,176.22133519293857 185.36737022246234,178.07097360340413 185.82943525386509,180.48352672019973 185.9834569308441,182.17230129087693 186.0450656019384,183.78064836954582 186.32230462064035,185.6704441504553 186.4763262978522,186.9571061769093 186.75356531655416,190.2139424897614 186.84597832278814,191.94286459111026 187.0,193.35011873120675 187.0,193.99343250796665 186.81517398753203,194.35529584504548 185.86023958935402,195.44088299557916 183.91956645750906,197.93369650823297 182.22532800910994,199.8233948998095 179.69937250425573,202.75843257817905 179.39132915006485,203.08007863597595 179.17569880210795,203.16049009139533 178.89845978317317,203.16049009139533 178.55961209360976,202.95946140837623 177.7586993725272,202.11513933259994 176.9269823160721,201.39143263045116 174.9247005134821,199.50174502804293 173.75413576723076,198.45638034294825 172.76839703368023,197.77287051291205 172.05989731894806,197.08935898158234 171.56702795205638,196.68729258040548 171.50541928119492,196.56667254513013 171.50541928119492,196.32543231581803 171.32059326861054,195.88315801191493 171.2589845978655,195.2800555404392 171.22818026226014,195.23984866184765 171.0433542499086,195.1594348871149 170.70450656022877,195.36046927978168 170.27324586419854,195.400676140649 169.87278950377367,195.19964177749353 169.2567027952755,194.67695174441906 168.94865944085177,194.55633082633722 168.73302909301128,194.6367447777011 167.99372504279017,195.19964177749353 167.6240730176214,195.36046927978168 167.22361665719654,195.2800555404392 166.42270393611398,194.79757260964834 166.2378779235296,194.79757260964834 166.08385624643415,194.91819342176314 165.46776953793596,195.64191718224902 164.91329150018282,196.08419187477557 164.51283513975795,196.48625915890443 162.91100969759282,198.49658675058163 161.83285795769189,200.0646320565138 161.24757558468264,200.66772402112838 159.5225328010274,202.75843257817905 159.06046776950825,203.24090152344434 158.56759840273298,203.60275267623365 158.19794637768064,203.64295833045617 157.92070735886227,203.5223413501517 156.9041642898228,202.79863835597644 155.7335995436879,202.15534520466463 154.87107815186027,201.59246246126713 153.48488305753563,200.3862812691077 152.06788362807129,198.9790631828946 151.54420992580708,198.53679315236514 150.58927552762907,197.93369650823297 149.20308043353725,196.44605245703133 148.06332002277486,195.48108984474675 146.27666856814176,194.0738466239709 145.53736451792065,193.35011873120675 144.24358243017923,192.02327930758474 144.0279520821059,191.6614128977817 143.9971477467334,191.50058322917903 144.05875641759485,191.29954601099598 145.22932116372976,189.85207369559794 146.83114660577849,187.43960288263042 148.8334284084849,185.06731925028726 149.94238448375836,184.0621081397985 152.4991443241015,181.16707958330517 152.96120935538784,180.4031086244504 154.47062179120257,178.27202050600317 154.96349115809426,177.22657500510104 155.48716486024205,176.62343155944836 155.7335995436879,175.8192382378329 156.10325156874023,173.76853460780694 156.19566457509063,171.35592249475303 156.28807758132461,171.11466011754237 156.62692527100444,170.75276615435723 156.87335995433386,170.63213472726056 157.3046206503641,170.59192423985223 158.13633770681918,170.63213472726056 159.67655447800644,170.83318707626313 160.84711922425777,171.07444970079814 162.01768397027627,171.47655360380304 163.58870507695246,172.28075964347227 164.91329150018282,173.20559367732494 166.76155162567738,174.85420314312796 167.65487735311035,175.8192382378329 168.27096406160854,176.62343155944836 169.22589845978655,178.67411386963795 169.41072447225451,179.2370435897319 169.99600684526376,181.8104219000379 170.02681118086912,183.17751931890962 170.21163719333708,184.22294216474984 170.24244152882602,184.66523524775403 170.21163719333708,186.15294311687467 169.6879634911893,188.88708791366662 168.91785510559566,190.85726361293928 168.45579007419292,191.78203508732258 168.05533371365163,192.9480468555994 168.05533371365163,193.18929005172686 168.1477467197692,193.39032588651753 168.70222475752234,194.15426071660477 168.73302909301128,194.27488181137596 168.6714204220334,194.39550285309087 168.30176839709748,193.79239711456466 167.87050770095084,193.39032588651753 166.9771819737507,192.9480468555994 166.60752994869836,192.70680344765424 165.86822589847725,192.02327930758474 161.95607529953122,188.76646445243387 161.37079292652197,188.20355426645256 160.0462065031752,187.27877074165735 158.72162007994484,186.03231845473056 153.42327438667417,181.6093775879126 152.89960068452638,181.12687063842895 152.31431831151713,180.36289956784458 151.39018824859522,179.7195538597589 150.46605818602256,178.9153696052672 149.97318881901447,178.43285792216193 148.58699372492265,177.34720353523153 147.50884198525455,176.3017545134353 146.33827723900322,175.37693090704852 146.09184255555738,175.0954622347199 145.7837992013665,174.49231410821085 145.5065601824317,174.17063456578762 145.13690815737937,173.92937466161675 144.5208214489976,173.68811454548268 144.27438676555175,173.52727435040288 140.2390188248828,170.23002958772122 139.34569309744984,169.62687077425653 137.86708499700762,168.219495057303 136.51169423852116,167.133800289972 135.64917284657713,166.32957917626482 135.46434683399275,166.00789007119602 134.63262977742124,165.20366565985023 134.54021677118726,164.96239787721424 134.54021677118726,164.56028443481773 134.75584711914416,164.15817040370894 138.26754135778174,159.7750892720942 139.13006274960935,158.89042220907868 140.054192812182,157.8449029144249 140.39304050197825,157.56341627016081 140.70108385628555,157.44277904875344 141.10154021682683,157.32214177417336 143.35025670274626,157.20150444665342 145.32173416996375,156.8798046473239 146.86195094126742,156.8395921458141 148.6486023957841,156.63852955057519 150.06560182548128,156.59831701379153 152.31431831151713,156.63852955057519 153.23844837408978,156.59831701379153 154.53223046194762,156.43746680786717 155.82601254980545,156.63852955057519 155.9492298916448,156.8798046473239 155.9800342270173,157.80469055427238 155.8568168852944,158.64914887904888 155.82601254980545,160.25763374139206 155.82601254980545,161.74547385022743 155.91842555627227,163.27351746227941 156.13405590411276,165.00260918895947 156.22646891034674,166.45021249348065 156.41129492293112,167.49569902272196 156.472903593909,168.29991672118194 156.53451226477046,168.50097077788087 156.71933827723842,168.78244620974874 157.1197946377797,168.8628677087545 158.62920707359444,168.78244620974874 160.13861950940918,168.94328918418614 161.06274957209826,169.14434276966495 162.81859669135883,169.82792385923676 165.25213918986265,171.39613287028624 166.36109526525252,172.28075964347227 167.00798630923964,172.52202099596616 167.56246434675995,172.36118011784856 167.59326868213248,172.52202099596616 167.87050770095084,171.87865691806655 169.5955504848389,169.94855563968304 170.45807187678292,168.702024687198 170.9817455789307,168.17928421663237 172.18311466055457,166.57084575775662 173.01483171700966,165.64598937760456 173.81574443809222,164.56028443481773 174.2162007985171,164.15817040370894 174.55504848819692,163.83647875470342 175.140330861439,163.71584428916685 175.41756988025736,163.79626727217692 175.72561323444825,163.9571131672419 179.237307472853,166.9729562557186 180.40787221910432,168.17928421663237 181.51682829426136,169.70729202605435 182.65658870502375,171.63739500014344 182.99543639482,172.36118011784856 183.5499144323403,174.17063456578762 184.72047917847522,176.98531778578763 185.27495721622836,178.67411386963795 185.58300057041924,180.28248143664678 185.58300057041924,180.52373575922684 185.45978322869632,180.72478086611954 185.09013120364398,180.88561684580054 181.6400456361007,181.44854203236173 180.03822019393556,181.8104219000379 179.20650313748047,181.9310484166781 177.5738733599428,181.9712572438293 173.0456360524986,182.33313642261783 171.32059326861054,182.6145976765547 170.33485453517642,182.9362673278083 170.24244152882602,183.01668468178832 170.21163719333708,183.2177279635216 170.21163719333708,184.42398456358933 170.08841985173058,185.79106897159363 169.74957216193434,187.72105890297098 169.31831146602053,189.2891657348373 168.94865944085177,190.53560323969577 168.70222475752234,191.09850864569307 168.51739874493796,191.86244985100348 168.05533371365163,192.7470106971159 167.96292070730124,193.0686684801185 168.08613804902416,193.30991157019162 168.6714204220334,193.9532254410442 169.01026811171323,194.55633082633722 169.87278950377367,195.2800555404392 170.27324586419854,195.44088299557916 170.5504848830169,195.36046927978168 170.9509412435582,195.11922799097374 171.41300627484452,195.1594348871149 171.50541928119492,195.03881418096717 171.41300627484452,194.99860726715997 170.9509412435582,195.1594348871149 170.6428978893673,195.19964177749353 170.42726754152682,195.1594348871149 169.78037649742328,194.83777955293772 168.9794637763407,194.23467478563543 168.88705077010673,193.9532254410442 168.60981175117195,193.35011873120675 168.39418140321504,193.1490828670212 168.2093553908635,193.0686684801185 167.74729035934433,192.9882540696708 167.2852253279416,192.9882540696708 167.16200798633508,193.0686684801185 166.91557330288924,193.43053303586203 166.76155162567738,193.51094731671037 166.4535082716029,192.7470106971159 165.89903023384977,192.10369400071795 164.08157444384415,190.41498050265363 162.17170564748812,188.84688009921229 161.15516257844865,187.9220987407316 160.10781517392024,187.11793850641698 159.30690245283768,186.39419228211045 157.61266400455497,185.0271108765446 154.9018824872328,182.6950151246856 152.83799201378133,181.0464527310687 151.91386195097584,180.24227236228762 151.32857957785018,179.79997215568437 150.58927552762907,179.11641588970087 148.7410154021345,177.58846043652738 147.60125499137212,176.46259308347362 146.36908157449216,175.4573504747823 146.2150598972803,175.25630151142832 145.84540787222795,174.5727339349687 145.4757558470592,174.13042459645658 145.13690815737937,173.92937466161675 144.6440387906041,173.76853460780694 143.31945236725733,172.84370246977778 142.3337136338232,171.95907751019695 139.65373645175714,169.82792385923676 137.89788933261298,168.219495057303 136.48088990303222,167.133800289972 134.75584711914416,165.5655669364496 134.38619509409182,165.40472198359203 134.17056474613491,165.44493323058123 133.67769537935965,165.76662299520103 133.2156303478405,166.12852352971095 133.0,166.2089458061091" stroke="#ffc700" stroke-linecap="round" stroke-linejoin="round" stroke-width="0.5"><title>2022-11-13 11.4km</title></polyline><polyline fill="none" points="55.22055761294905,266.07818488370685 55.5836723074317,266.84197488719656 56.007306117680855,267.0 56.43093992804643,266.9209874609369 58.56928201811388,265.9201589606673 59.49724179296754,265.70945751378895 60.4050285294652,264.44524364692916 61.171603995608166,262.68059692588577 61.53471869020723,258.3874288392253 61.59523780585732,252.9352209721401 61.27246918855235,251.90797488998214 59.90070256474428,250.38026473138598 59.618280024500564,249.66908488392073 59.53758787014522,248.95790222276992 59.71914521744475,248.27305700087163 60.22347118216567,247.4828477334231 61.47419957444072,246.32386785726703 62.38198631070554,245.24390261052758 62.48285150376614,244.7170879404439 62.36181327223312,243.7688176434458 61.99869857763406,242.95224754563242 61.03039272548631,241.4771437720774 60.80848930112552,240.10739371425007 55.22055761294905,237.7366477924952 53.74792579608038,237.36786228313576 52.6989277896937,237.5522551324102 50.903527355520055,237.47322964872 47.635495104594156,238.00006555014988 47.13116913998965,237.86835671964218 46.445285828085616,236.86736645299243 45.92078682477586,236.36686922915396 45.77957555477042,235.91905474229134 45.75940251618158,234.52292006295465 46.12251721078064,233.31117173889652 46.12251721078064,231.83598883960804 46.62684317538515,231.20376389053126 46.74788140691817,230.88765058203717 46.586497098207474,227.14693421401898 46.9294387542177,226.56737964205968 47.211861294345,226.382975522778 55.70471053896472,225.1711723170447 63.9554833205184,223.74861030180182 64.17738674487919,223.59054716058017 64.27825193782337,223.32710828301788 63.773925973218866,221.19323914243432 62.60388973518275,219.1120337225002 62.018871616222896,218.47976401164487 61.494372613029554,218.1109389863559 60.526066760881804,217.9001814891235 58.26668643928133,218.32169623632217 56.43093992804643,219.0330001303373 54.37328999233432,218.63783164793858 52.981350329821,218.05824963524356 52.053390554967336,217.50501051572792 49.874702387605794,215.84528293847688 48.72483918827493,215.16031153338554 48.200340185081586,214.55437311403512 47.59514902741648,214.13284953036055 45.15421135863289,213.28979939673445 43.883309927769005,213.10538165291655 42.4913702653721,213.31614477332914 40.61527767684311,213.31614477332914 38.47693558677565,213.60594366042642 35.854440570576116,213.60594366042642 31.75931373774074,213.9484326516249 29.984086342155933,213.9484326516249 28.59214667987544,214.42264710034942 26.978303592884913,214.76513453510415 22.74196548992768,214.6860990311543 20.42206605267711,215.10762131714728 18.66701169568114,215.81893793273775 17.839917113655247,216.47756191817462 17.053168608807027,217.34694188305002 16.22607402689755,218.76955457188888 15.762094139354303,220.7980754100281 15.78226717794314,221.2459275743895 16.32693921972532,221.8781875535351 16.730399991502054,222.66850939960568 17.81974407506641,225.30289045262907 25.68722912343219,224.5125801912218 27.986955522210337,224.43354897404788 28.79387706576381,224.61795509360672 29.72183684061747,224.48623645601037 31.69879462197423,224.5389239226788 32.707446551299654,224.85504839780333 35.2895954902051,226.04051022765634 35.43080676032696,226.77812697539048 35.2895954902051,228.3850672657718 35.57201803044882,229.3597617530031 36.21755526517518,229.88662143715192 38.05330177641008,230.49250816453423 39.08212674432434,231.6252474369976 39.82852917199489,232.20478569949046 40.45389336813241,232.36284126491228 41.64410264464095,232.28381349967094 42.733446728321724,231.7042754918948 43.500022194581106,231.54621934730676 46.00147897924762,231.75696084262745 46.14269024936948,232.96871964495222 45.79974859324284,234.60194684375892 45.94095986348111,236.02442295727087 46.08217113360297,236.4458951992856 46.80840052268468,237.47322964872 46.80840052268468,237.97372379181616 45.295422628638335,238.23714120213117 43.439503078814596,238.28982463777356 41.159949718625285,238.02640730475832 39.98991348070558,237.57859695251682 39.42506840033457,237.47322964872 38.557627741014585,237.5522551324102 37.306899348739535,237.94738202950975 36.31842045811936,238.73763321802835 34.84578864136711,240.39714940467093 33.75644455780275,241.2664136733365 31.900525007862598,242.21469717207947 29.358722146134824,242.6888370453089 28.430762371164747,243.03127062042768 27.260726133128628,243.7688176434458 25.767921277787536,245.24390261052758 24.658404155634344,246.03412172064418 23.99269388220273,246.71897547272965 23.629579187720083,247.74625120853307 23.528713994892314,248.90522191376658 23.77079045784194,249.9588251614914 24.27511642256286,250.95974252685846 25.263595313299447,252.0396734336682 26.31259331968613,252.8825418287597 28.309724139631726,254.09415822276787 29.580625570495613,255.27942722805892 30.04460545803886,255.5164800913335 32.08208235516213,256.069602223346 33.15125340013765,256.6490616789815 33.99852102086879,257.3075360659277 34.543193062534556,258.1503797618352 35.59219106903765,260.62621026547276 37.367418464506045,262.68059692588577 39.04178066714667,262.73327319814416 41.54323745169677,262.3645389676967 43.641233464702964,262.7596113285108 45.6585373232374,263.68144346089684 46.727708368212916,263.7867954036192 48.28103233932052,263.57609145648894 50.64127785398159,262.44355350929254 52.11390967061743,262.6279206380277 53.26377287006471,262.49622985109454 54.17155960644595,262.6015824883798 55.52315319166519,263.1020066723431 55.98713307909202,263.6287674663763 55.946787001914345,264.3925678761734 55.26090369001031,265.1300272617227 55.099519381299615,265.60410669780686 55.62401838460937,266.7629622786626 55.946787001914345,266.9209874609369 56.3704208121635,266.84197488719656 58.750839365297,265.7884705853503 59.416549638612196,265.68311981568695 59.739318256033584,265.47241809093975 60.263817259226926,264.7086222689395 61.25229614996351,262.5489061774715 61.53471869020723,260.83691767002165 61.514545651501976,255.88522836843913 61.454026535735466,252.8825418287597 61.29264222714119,252.3820891958021 60.647104992414825,251.3811797501985 59.638453063205816,250.40660467173439 59.37620356155094,249.30032385529194 59.577933947439305,248.43109843744605 60.06208687345497,247.5882091698004 62.220602002111264,245.55999067147786 62.563543658005074,244.84879175273818 62.563543658005074,244.08490829826042 62.32146719493903,243.40004451027198 60.990046648308635,241.60884995829838 60.82866233959794,240.37080799753312 60.647104992414825,240.08105226470798 59.21481925284024,239.58056398948247 56.854573738295585,238.44787485233974 55.40211496013217,237.81567316032306 53.8689640276134,237.3415204321209 52.65858171239961,237.52591330834548 50.96404647140298,237.4205459735822 50.01591365772765,237.4995714805118 47.7161872589495,238.00006555014988 47.09082306281198,237.92104026341985 45.94095986348111,236.4985791600775 45.75940251618158,235.97173885752272 45.71905643900391,234.4965777948819 46.08217113360297,233.3638566185109 46.10234417207539,231.88867415164714 46.62684317538515,231.25644938787445 46.788227483979426,230.8086221680278 46.606670136679895,228.51678304593952 46.647016213973984,227.27865090154228 47.050476985634305,226.75178357228287 48.15999410790391,226.43566243328678 50.35885531373788,226.014166716428 52.6989277896937,225.77707494125934 55.26090369001031,225.25020321001648 60.72779714665376,224.45989271695726 63.91513724334072,223.80129798463895 64.19755978335161,223.56420329023967 64.2379058606457,223.27442046115175 63.713406857452355,221.2986159909924 63.22925393143669,220.13946725848655 62.60388973518275,219.2174117914401 61.65575692174025,218.16362832197046 60.54623979947064,217.8738367845799 57.923744783271104,218.37438551019295 56.3704208121635,219.0330001303373 53.6470606031362,218.29535159363877 52.43667828803882,217.76845792791573 51.629756744601764,217.24156271741958 49.97556758066639,215.92431793258584 48.805531342630275,215.21300173411146 48.32137841649819,214.50168272011797 47.81705245189369,214.10650427357177 44.54902020096779,213.0 42.511543303960934,213.0790362455009 38.19451304653194,213.57959832632332 35.69305626186542,213.60594366042642 33.91782886639703,213.86939678851923 30.145470650983043,213.97477793153666 28.067647676565684,214.60706349246902 26.65553497557994,214.79147969531186 24.517192885512486,214.63340867591614 22.68144637416117,214.7124442030181 20.139643512433395,215.21300173411146 18.909088158630766,215.58183270698646 17.53732153493911,216.60928642566432 16.468150489847176,217.92652618983993 15.983997563831508,218.74320999483461 15.72174806217663,220.35022212957847 15.72174806217663,221.19323914243432 16.770746068679728,222.77388538315427 17.59784065070562,225.1711723170447 18.00130142236594,225.2765468331927 19.57479843206238,225.2238595828385 24.133905152324587,224.6706425215234 27.583494750550017,224.5125801912218 28.75353098846972,224.6706425215234 31.557583351852372,224.61795509360672 33.110907322959974,224.8813920790417 35.329941567382775,226.09319723854424 35.450979798915796,226.64640992105706 35.208903335849755,228.30603775133204 35.47115283750463,229.09633133173338 35.81409449339844,229.51781982040848 36.43945868953597,229.9129643807246 37.8919174678158,230.36079383234028 38.900569397141226,231.54621934730676 39.74783701763954,232.20478569949046 40.47406640672125,232.36284126491228 41.70462176052388,232.28381349967094 42.7737928054994,231.7042754918948 43.56054131034762,231.51987664306944 45.98130594054237,231.75696084262745 46.12251721078064,232.04672999503964 46.18303632654715,233.04774710912898 45.75940251618158,234.52292006295465 45.81992163194809,236.1034490778984 46.00147897924762,236.4722371816315 46.80840052268468,237.3415204321209 46.96978483127896,237.71030599552614 46.84874659986235,237.97372379181616 46.62684317538515,238.0790908022609 44.44815500814002,238.26348292187322 42.20894772512838,238.1054325451987 39.445241438923404,237.47322964872 38.81987724278588,237.47322964872 37.185861117206514,237.92104026341985 36.116690072230995,238.71129156768438 34.42215483111795,240.63422189485573 33.53454113332555,241.3981200140115 32.001390200690366,242.16201488664956 29.035953528713435,242.7678602359665 27.583494750550017,243.45272643277713 26.635361936991103,244.21661257374217 25.64688304637093,245.2702433034574 24.658404155634344,245.98144055470766 23.99269388220273,246.79799689170613 23.528713994892314,247.8779528013838 23.44802184042055,248.87888175348053 23.669925264897756,250.27490493158984 24.43650073115714,251.19680108656758 26.090689895208925,252.7245043057046 27.785225136438385,253.69906681764405 29.802528994856402,255.38478409480012 30.50858534546569,255.67451515985886 32.02156323939562,256.04326311273326 33.61523328756448,256.9387907064083 34.543193062534556,258.20305736156297 35.47115283750463,260.6525487045001 37.44811061897781,262.68059692588577 38.840050281374715,262.8122875777044 41.50289137463551,262.44355350929254 42.350158995133825,262.49622985109454 43.62106042611413,262.73327319814416 45.27524959016591,263.6287674663763 46.08217113360297,263.8131333796482 48.18016714649275,263.6024294633535 49.935221503372304,262.7859494550794 50.80266216257587,262.49622985109454 52.19460182497278,262.73327319814416 54.03034833620768,262.73327319814416 55.482807114487514,263.18102088979504 55.946787001914345,263.6551054656302 55.92661396332551,264.471581526479 55.24073065142147,265.3143916354311 55.11969241988845,265.6304444076086 55.16003849718254,265.9991719395912 55.68453750037588,266.8156373548991 55.96696004050318,266.9209874609369 56.390593850868754,266.8946499402664 58.286859477870166,266.07818488370685 56.20903650356922,266.94732497780933 55.886267886147834,266.9736624908546 55.603845346020535,266.84197488719656 55.099519381299615,265.55143126659095 55.30124976718798,265.15636504100985 55.96696004050318,264.62960872291296 56.0879982720362,264.07651292777155 55.724883577553555,263.44440136400226 54.998654188471846,263.1020066723431 53.82861795043573,262.86496381151665 52.335813095094636,262.94397813313117 50.84300823986996,262.5489061774715 50.399201390799135,262.65425878389215 48.987088689929806,263.33904922065267" stroke="red" stroke-linecap="round" stroke-linejoin="round" stroke-width="0.5"><title>2022-11-12 22.0km</title></polyline><polyline fill="none" points="143.63825320545584,262.7127453125431 145.68347155489028,264.4519226870034 146.73706888628658,265.50351299752947 147.82165437447838,266.3933170570526 148.62734645139426,266.9595545119373 149.09216880367603,267.0 149.34007405815646,266.8786635180004 149.68094378290698,266.35287148013595 149.92884903750382,265.8675240955199 150.42465954634827,265.17994717441616 151.16837530990597,264.4114768259169 151.69517397566233,263.6430043398286 152.19098448439036,263.15765219484456 152.65580683667213,262.51051467488287 153.21359365899116,261.9442681015644 158.29565137566533,255.83682058023987 159.72110658884048,254.2998257673753 160.123952627182,253.69311493475107 161.23952627251856,252.35834641277324 161.921265722136,251.42804938662448 162.26213544700295,250.86178009785363 163.03683936723974,249.9719260132115 164.4622945804149,247.9495197062206 164.8031643051654,247.50458833179437 165.29897481412627,247.10010464230436 166.04269057756756,246.00799572240794 166.69344187062234,245.19902336853556 167.3751813203562,243.8237649301591 167.80901551572606,243.17658211942762 168.24284971086308,242.32715237955563 169.0175536312163,241.15412606392056 169.42039966967423,238.92940730060218 169.54435229685623,238.64625999092823 169.73028123774566,238.52491105505032 169.91621017863508,238.48446139795124 171.0627719804179,238.9698568925669 171.27968907810282,238.9698568925669 171.43462986208033,238.8889577027585 173.0770021729404,236.7046706203837 174.00664687727112,236.13837115003844 174.28554028854705,235.85522097942885 174.90530342468992,234.88441819138825 175.43210209044628,233.8327113208361 175.8349481287878,232.49784683421603 175.89692444261163,231.89108811694314 175.89692444261163,230.3944109159347 175.7419836585177,227.84599594122847 176.14482969697565,226.79426227262593 176.29977048095316,225.7829761224857 176.14482969697565,224.2862658254453 176.11384154018015,222.78954741850612 175.92791259929072,221.85915080757695 175.95890075620264,221.3737252447463 176.17581785377115,220.60513302564505 176.11384154018015,220.36241924890783 175.95890075620264,220.03880054818 176.02087706967723,219.63427663920447 175.95890075620264,219.39156200937578 175.6180310313357,219.02748966478975 174.84332711109892,218.54205912558245 174.34751660225447,218.4611539527832 173.41787189792376,218.09708038181998 172.67415613448247,218.09708038181998 171.77549958694726,218.01617507866467 171.1557364509208,217.69255362910917 170.78387856914196,217.3284790449543 170.56696147157345,216.8430455198104 170.50498515786603,216.3980640390364 170.72190225555096,215.66991097855498 170.69091409875546,215.2653806708695 170.47399700107053,214.49677145452006 170.13312727632,214.01133295250474 169.79225755145308,213.8090666582866 169.26545888569672,213.68770681065507 167.99494445649907,213.566346909618 166.78640634100884,213.0 166.56948924344033,213.0 166.25960767525248,213.1213601497584 163.25375646492466,215.2653806708695 162.51004070148338,215.9126288786356 162.41707623098046,216.19579949247418 162.44806438789237,216.3980640390364 162.7889341127593,216.8025926874834 163.06782752403524,216.9644039811683 163.28474462160375,216.88349834622932 163.93549591465853,216.4789698162058 164.21438932593446,216.43851693050237 165.17502218694426,217.4498372930393 165.6088563821977,217.7330063310219 166.07367873447947,218.33979614914278 166.13565504795406,218.58251170316362 166.10466689115856,218.94658463416272 166.476524772821,219.55337178628542 167.12727606587578,220.36241924890783 167.96395629970357,221.211916534201 168.49075496545993,222.02095913889934 169.3894115127623,223.03225906248554 169.76126939454116,223.27497049310477 170.38103253068402,223.35587425596896 170.78387856914196,223.35587425596896 171.37265354860574,223.15361480449792 171.58957064629067,223.15361480449792 171.9304403711576,223.39632612856803 172.27131009602454,223.88174813680234 172.64316797768697,224.56942785496358 172.89107323205099,225.2571058611793 173.35589558421634,226.06613661770825 173.66577715228777,226.9156163619191 173.9136824067682,227.36058089949074 174.28554028854705,227.8864471562847 174.8123389543034,228.93817666641553 174.7813507973915,229.1808829078218 174.34751660225447,230.19215661808266 173.47984821151476,231.32477877833298 173.1079903297359,232.2955940765678 173.04601401626132,233.63045954064 173.41787189792376,235.1675693569996 173.47984821151476,236.01702111252234 173.38688374101184,236.54287089014542 173.57281268190127,236.6642206966353 173.7587416227907,236.58332083161804 174.00664687727112,236.38107106517418 174.40949291572906,235.89567102160072 175.40111393365078,234.03496295312652 175.86593628569972,232.5382973679516 176.05186522658914,230.63711587782018 175.95890075620264,229.90900035240338 175.8039599719923,229.54494187011733 175.5870428745402,229.34268695028732 175.24617314955685,229.14043188240612 174.93629158148542,229.09998085111147 174.84332711109892,229.22133392724209 174.37850475893356,230.35396006825613 173.72775346587878,231.001172920689 173.41787189792376,231.48658156502643 173.16996664355975,232.25514350732556 173.13897848664783,232.9832528484112 173.0150258593494,233.7113602704194 173.47984821151476,235.65297068003565 173.47984821151476,236.58332083161804 173.72775346587878,236.50242094282294 174.13059950445313,236.21927114546997 174.68838632688858,235.32936989277368 175.6800073448103,233.26640596281504 175.8349481287878,232.78100044614985 175.98988891288172,232.0124399670749 176.08285338326823,230.434861757647 175.8349481287878,229.22133392724209 175.7109955017222,228.25050782455946 175.7729718153132,227.84599594122847 176.23779416747857,226.67290813016007 176.36174679454416,225.37846062571043 176.11384154018015,223.76039271464106 175.98988891288172,222.5872875523346 175.8039599719923,221.85915080757695 175.8349481287878,220.60513302564505 176.08285338326823,219.75563387409784 176.02087706967723,219.51291935096378 175.7419836585177,219.18929965500138 174.84332711109892,218.6229642747203 173.57281268190127,218.25889091705903 172.0234048415441,218.1375330244773 171.40364170540124,217.89481707950472 171.0627719804179,217.65210092120105 170.69091409875546,217.2071207437839 170.47399700107053,216.6812341552577 170.44300884427503,216.43851693050237 170.65992594195995,215.54855194836273 170.47399700107053,214.73949038545834 170.28806806029752,214.37541190895718 170.071150962729,214.09223942880635 169.88522202172317,213.93042645257083 169.63731676735915,213.8090666582866 168.24284971086308,213.64725351618836 166.91035896807443,213.16181352126296 166.32158398884349,213.16181352126296 166.04269057756756,213.2831735999789 164.86514061887283,214.17314588130102 163.93549591465853,214.73949038545834 162.7269577991683,215.7103639766865 162.51004070148338,215.9935347979481 162.54102885827888,216.3980640390364 162.7579459559638,216.6812341552577 163.00585121044423,216.8430455198104 163.37770909210667,216.76213984933565 164.09043669875246,216.43851693050237 164.27636563952547,216.43851693050237 164.4622945804149,216.55987556948094 165.14403403014876,217.3284790449543 165.79478532308713,218.17798566116835 166.22861951845698,219.14884716636152 166.97233528178185,220.11970525889774 167.93296814290807,221.1310121434508 168.76964837661944,222.30412349078688 169.26545888569672,222.8704513235425 169.54435229685623,223.03225906248554 170.44300884427503,223.23451860272326 170.8768430397613,223.23451860272326 171.40364170540124,223.07271098240744 171.71352327347267,223.15361480449792 172.0543929983396,223.39632612856803 172.55020350730047,224.2053623351676 172.73613244807348,224.89304124761838 173.41787189792376,225.94478215521667 173.69676530908328,226.79426227262593 174.8123389543034,229.01907877068152 174.750362640596,229.4235889359552 174.40949291572906,230.273058354971 173.57281268190127,231.20342662616167 173.23194295703433,232.21469293202972 173.20095480023883,233.2259555356577 173.0770021729404,233.75181062653428 173.26293111382984,234.4394657734083 173.57281268190127,235.93612105789362 173.54182452510577,236.54287089014542 174.25455213163514,235.81477093152353 174.6573981703259,235.28891976780142 175.21518499264494,234.2776647162682 175.7729718153132,232.78100044614985 176.02087706967723,231.48658156502643 176.05186522658914,230.71801748432335 175.8349481287878,228.25050782455946 176.23779416747857,226.95606771306484 176.36174679454416,225.7020730705117 176.11384154018015,224.44807273504557 175.92791259929072,222.06141120698885 175.8349481287878,220.72648983393447 175.98988891288172,219.8769910557894 175.92791259929072,219.63427663920447 175.43210209044628,219.1083946718427 174.84332711109892,218.74432195394184 173.72775346587878,218.29934353611316 172.0234048415441,218.01617507866467 171.43462986208033,217.77345902705565 171.1247482941253,217.53074276208645 170.78387856914196,217.12621517982916 170.50498515786603,216.6003284372273 170.50498515786603,215.50809892645339 170.22609174670652,214.6585840987973 169.82324570801575,214.13269265793497 169.1724944151938,213.8495199289755 167.87099182920065,213.64725351618836 166.78640634100884,213.2831735999789 166.32158398884349,213.32362694761832 163.78055513068102,214.86084977100836 162.7269577991683,215.62945797439897 162.44806438789237,215.9935347979481 162.41707623098046,216.15534656541422 162.51004070148338,216.3980640390364 162.9128867399413,216.76213984933565 163.19178015121724,216.8025926874834 163.81154328747652,216.55987556948094 164.09043669875246,216.5194226957974 164.33834195323288,216.6003284372273 164.6482235211879,216.88349834622932 165.98071426397655,218.5016065420932 166.91035896807443,219.95789581388817 167.99494445649907,221.211916534201 168.83162469032686,222.38502753799548 169.1105181016028,222.66819151653908 169.45138782646973,222.8704513235425 169.91621017863508,222.99180713659734 170.75289041234646,223.07271098240744 171.43462986208033,223.03225906248554 171.71352327347267,223.11316289636306 172.0853811551351,223.43677799514262 172.76712060486898,224.65033123869216 173.38688374101184,225.98523364868015 173.8826942499727,227.19877569607343 174.8123389543034,228.93817666641553 174.7813507973915,229.34268695028732 174.50245738599915,229.90900035240338 173.47984821151476,231.28432806680212 173.1079903297359,232.37649519729894 173.04601401626132,233.67090990848374 173.60380083869677,235.6934207517479 173.66577715228777,236.09792114354786 173.57281268190127,236.62377076709527 173.72775346587878,236.90692014983506 174.47146922943648,235.93612105789362 174.8123389543034,235.36982001186698 175.37012577673886,234.23721443724935 175.8039599719923,233.10460421876633 176.05186522658914,231.76973621358047 176.17581785377115,230.515763423522 175.8349481287878,228.16960549526266 176.17581785377115,227.117873058829 176.29977048095316,226.2279424846056 176.11384154018015,224.48852444769 176.08285338326823,223.23451860272326 175.8349481287878,220.68603757044184 175.98988891288172,219.8769910557894 175.95890075620264,219.63427663920447 175.7109955017222,219.27020461452776 174.874315267778,218.66341684036888 173.60380083869677,218.21843829206773 172.11636931204703,218.1375330244773 171.58957064629067,217.93526975178975 171.24870092130732,217.69255362910917 170.8768430397613,217.28802628381527 170.56696147157345,216.72168700525071 170.47399700107053,216.35761114151683 170.59794962848537,215.62945797439897 170.50498515786603,215.18447453834233 170.22609174670652,214.49677145452006 169.88522202172317,214.05178619365324 169.26545888569672,213.8495199289755 168.24284971086308,213.7281600990682 166.97233528178185,213.2831735999789 166.4455366161419,213.2831735999789 166.07367873447947,213.44498695535003 164.05944854195695,214.6585840987973 162.66498148546088,215.9126288786356 162.57201701507438,216.11489363238798 162.57201701507438,216.27670532884076 162.81992226967122,216.6003284372273 163.00585121044423,216.72168700525071 163.16079199442174,216.76213984933565 163.40869724890217,216.64078129921108 165.02008140296675,215.4271928651142 165.23699850053526,215.18447453834233 165.20601034385618,215.02266220207093 164.98909324605484,214.73949038545834 164.5862472077133,214.53722462442238 164.18340116902255,214.6990372450382 162.9128867399413,215.5890049644222 162.57201701507438,215.95308184128953 162.51004070148338,216.23625241356785 162.7579459559638,216.6003284372273 163.06782752403524,216.8025926874834 163.34672093542758,216.8025926874834 164.09043669875246,216.55987556948094 164.27636563952547,216.55987556948094 164.4622945804149,216.6812341552577 164.98909324605484,217.12621517982916 165.82577347999904,218.09708038181998 166.66245371371042,219.63427663920447 167.96395629970357,221.1310121434508 168.80063653353136,222.34457551734522 169.54435229685623,223.23451860272326 169.85423386492766,223.35587425596896 170.25707990361843,223.43677799514262 171.58957064629067,223.11316289636306 171.9304403711576,223.27497049310477 172.33328640961554,223.84129633544944 173.35589558421634,226.06613661770825 173.7587416227907,227.0369703976903 174.40949291572906,228.08870314227534 174.7193744838005,228.93817666641553 174.6573981703259,229.22133392724209 174.22356397472322,230.15170574077638 173.47984821151476,231.24387734945049 173.20095480023883,232.05289057188202 173.16996664355975,233.46865800960222 173.57281268190127,235.32936989277368 173.60380083869677,236.13837115003844 173.13897848664783,237.10916953132255 171.46561801899225,238.8889577027585 171.1247482941253,238.9698568925669 170.00917464890517,238.60581035158248 169.91621017863508,238.64625999092823 168.76964837661944,241.59906766665517 167.59209841792472,244.02600924755097 166.13565504795406,246.08889282747987 165.02008140296675,247.50458833179437 164.71019983489532,248.23265748046106 162.94387489673682,250.2146137750533 161.921265722136,251.50894490466453 161.42545521329157,251.99431751464726 160.99162101792172,252.8032699698815 159.78308290231507,254.13803634225042 157.0871132600587,257.4142537335283 152.40790158207528,262.9149758024432" stroke="#4dd2ff" stroke-linecap="round" stroke-linejoin="round" stroke-width="0.5"><title>2022-11-07 10.0km</title></polyline></svg>