<?xml version="1.0" encoding="utf-8" ?>
<svg baseProfile="full" height="200mm" version="1.1" viewBox="0,0,200,200" width="200mm" xmlns="http://www.w3.org/2000/svg" xmlns:ev="http://www.w3.org/2001/xml-events" xmlns:xlink="http://www.w3.org/1999/xlink"><defs /><rect fill="#1a1a1a" height="200" width="200" x="0" y="0" /><text alignment-baseline="middle" fill="#e1ed5e" style="dominant-baseline: central; font-size:9.0px; font-family:Arial;" text-anchor="middle" x="100.0" y="100.0">2023</text><line stroke="#e1ed5e" stroke-width="0.3" x1="100.0" x2="100.0" y1="15.0" y2="10.0" /><path d="M 100.0 14.0 a86.0,86.0 0 0,1 42.46469731375804,11.215312516191453" fill="none" id="id13" stroke="none" /><text fill="#e1ed5e" style="font-size:6.75px; font-family:Arial;" text-anchor="middle"><textPath startOffset="22.20632615414155" xlink:href="#id13">January</textPath></text><line stroke="#e1ed5e" stroke-width="0.3" x1="143.23703022742887" x2="145.7803849466894" y1="26.818313649435467" y2="22.513508569990506" /><path d="M 143.74570117128098 25.957352633546478 a86.0,86.0 0 0,1 28.547481713284135,27.462654790039114" fill="none" id="id14" stroke="none" /><text fill="#e1ed5e" style="font-size:6.75px; font-family:Arial;" text-anchor="middle"><textPath startOffset="19.985693538727396" xlink:href="#id14">February</textPath></text><path d="M 112.77801427241765 83.33499621200491 l 11.675474986397077 -15.227079163227101 a40.18803418803419,40.18803418803419 0 0,0 0.54534673408236,0.42565177609783855 l -11.935854275638867 15.023848997906036" fill="#ff0000" stroke="none" /><path d="M 115.9244219780498 86.31012108654704 l 35.46947276905126 -30.492333599401057 a67.77462887989205,67.77462887989205 0 0,0 0.7529095996442059,0.8912074860662323 l -35.98909298218258 29.877267163705717" fill="#30ff3a" stroke="none" /><path d="M 116.15771136456269 86.58626213691792 l 14.988186983077837 -12.442827248096862 a40.47998200629779,40.47998200629779 0 0,0 0.44046366329328007,0.5399563701877689 l -15.200149138447525 12.182986708300989" fill="#ff0601" stroke="none" /><path d="M 116.82858285166822 87.43820079747576 l 25.332815614209277 -18.90983606790885 a52.612235717498876,52.612235717498876 0 0,0 0.535485800575023,0.730402030193279 l -25.654564027297926 18.470971594044073" fill="#ffed16" stroke="none" /><path d="M 117.2510076193507 88.02491185347247 l 40.8066537793638 -28.326651216858306 a70.67476383265858,70.67476383265858 0 0,0 0.6851263243318833,1.0053383408090057 l -41.28820456936441 27.620034852778897" fill="#36ff6b" stroke="none" /><path d="M 117.65298651832404 88.62581576622439 l 39.33284906076035 -25.342967955704868 a67.79037336932075,67.79037336932075 0 0,0 0.6235823511969448,0.986357525968009 l -39.76325900820325 24.662162782022655" fill="#31ff3b" stroke="none" /><line stroke="#e1ed5e" stroke-width="0.3" x1="172.23445277983987" x2="176.4835382374775" y1="55.19839476539836" y2="52.563006222186495" /><path d="M 173.08426987136738 54.67131705675599 a86.0,86.0 0 0,1 12.851231095245387,41.99856678651699" fill="none" id="id15" stroke="none" /><text fill="#e1ed5e" style="font-size:6.75px; font-family:Arial;" text-anchor="middle"><textPath startOffset="22.20632615414155" xlink:href="#id15">March</textPath></text><path d="M 120.45610955862082 95.25157060432595 l 38.93772669663576 -9.03852443286842 a60.97300944669366,60.97300944669366 0 0,0 0.22851990880155132,1.024409942906181 l -39.087540992439344 8.366936320412275" fill="#88ff25" stroke="none" /><path d="M 120.83666639777658 97.38593545837742 l 44.72141442763371 -5.610526246125444 a66.07197480881692,66.07197480881692 0 0,0 0.1318596733615849,1.129693156016586 l -44.811364453998884 4.839889351784005" fill="#3eff2d" stroke="none" /><path d="M 120.91429891909075 98.10471618934814 l 22.453650098020898 -2.0347820257065905 a43.545659019343226,43.545659019343226 0 0,0 0.06122419333173252,0.7470902338421596 l -22.485348775172127 1.6479778746566618" fill="#ff4406" stroke="none" /><path d="M 120.94382443527127 98.46500227214037 l 28.08705800334506 -2.058533786445865 a49.16239316239316,49.16239316239316 0 0,0 0.0545922834931225,0.8445184625219947 l -28.118330877842595 1.5747562596708353" fill="#ffaf10" stroke="none" /><path d="M 120.98425023603335 99.18683210126433 l 55.54445586543644 -2.1524223145678096 a76.58614484930274,76.58614484930274 0 0,0 0.03970920693254444,1.3177552584612486 l -55.57327676682463 1.1959969086815618" fill="#40ffc6" stroke="none" /><line stroke="#e1ed5e" stroke-width="0.3" x1="184.98032266829074" x2="189.97916517819016" y1="98.17113171792111" y2="98.06355123074" /><path d="M 185.9800911702706 98.14961562048488 a86.0,86.0 0 0,1 -9.607161424134198,41.387399972396054" fill="none" id="id16" stroke="none" /><text fill="#e1ed5e" style="font-size:6.75px; font-family:Arial;" text-anchor="middle"><textPath startOffset="21.466115282336823" xlink:href="#id16">April</textPath></text><path d="M 120.99513854157772 99.54816195383933 l 22.543138174422864 -0.48515266936151175 a43.548358074673864,43.548358074673864 0 0,0 0.009678089389032259,0.749578688809261 l -22.548149270929613 0.0970377224917881" fill="#ff4406" stroke="none" /><path d="M 120.99824983174949 100.27111621757518 l 35.349730223579485 0.45641352147497444 a56.35267656320288,56.35267656320288 0 0,0 -0.020871789801935308,0.9698300579727253 l -35.33663637109254 -1.0648333952378144" fill="#d2ff1c" stroke="none" /><path d="M 120.9904718944345 100.63252640178507 l 36.64733246115266 1.1043298813506066 a57.66396761133603,57.66396761133603 0 0,0 -0.03843678847123826,0.9918827204124753 l -36.622893539830216 -1.734989848777088" fill="#bcff1f" stroke="none" /><path d="M 120.95626037817324 101.35467743843564 l 20.81620182927985 1.3456236209690704 a41.85964912280702,41.85964912280702 0 0,0 -0.05267028490132858,0.7186441907424452 l -20.789954985714186 -1.7037409482082855" fill="#ff2203" stroke="none" /><path d="M 120.92983693683757 101.71520430193887 l 34.04421819424253 2.7899304556996385 a55.15834457939721,55.15834457939721 0 0,0 -0.08569348859957272,0.9456205059730499 l -33.99115010936588 -3.375532350221259" fill="#e6ff1a" stroke="none" /><path d="M 120.89721153311464 102.0752229133903 l 62.69163459934395 6.2256687401709 a84.0,84.0 0 0,0 -0.15527079399579247,1.4376147124608356 l -62.575181503847105 -7.303879774516527" fill="#4dd2ff" stroke="none" /><path d="M 120.70491114924044 103.5080841355445 l 34.802239960126784 5.896629307197605 a56.29824561403509,56.29824561403509 0 0,0 -0.17011066544155676,0.9540709514595676 l -34.69558285234604 -6.494819009390391" fill="#d3ff1c" stroke="none" /><path d="M 119.54520255179757 107.68017299344265 l 25.239240096609322 9.91761173368685 a48.1178587494377,48.1178587494377 0 0,0 -0.3095522345038614,0.7682832598446032 l -25.064785247848068 -10.350594361374267" fill="#ff9c0e" stroke="none" /><line stroke="#e1ed5e" stroke-width="0.3" x1="174.80103733775053" x2="179.2010983576182" y1="140.37084112569926" y2="142.7455964860345" /><path d="M 175.68104954172406 140.8457921977663 a86.0,86.0 0 0,1 -30.038265399797805,32.042727171017184" fill="none" id="id17" stroke="none" /><text fill="#e1ed5e" style="font-size:6.75px; font-family:Arial;" text-anchor="middle"><textPath startOffset="22.206326154141568" xlink:href="#id17">May</textPath></text><path d="M 116.0416608686014 113.55231037782055 l 35.094891598874554 29.648854162903262 a66.94242015294647,66.94242015294647 0 0,0 -0.7512134636429397,0.8738309714987295 l -34.57933562566083 -30.248562233563522" fill="#32ff2f" stroke="none" /><line stroke="#e1ed5e" stroke-width="0.3" x1="143.8653032363475" x2="146.44561519142675" y1="172.8068346515853" y2="177.08958963109032" /><path d="M 144.38136562736335 173.6633856474863 a86.0,86.0 0 0,1 -40.68145358897372,12.25698825130547" fill="none" id="id18" stroke="none" /><text fill="#e1ed5e" style="font-size:6.75px; font-family:Arial;" text-anchor="middle"><textPath startOffset="21.466115282336833" xlink:href="#id18">June</textPath></text><line stroke="#e1ed5e" stroke-width="0.3" x1="102.19456741930631" x2="102.32365962044197" y1="184.97166512339345" y2="189.96999836594603" /><path d="M 102.22038585953345 185.97133177190398 a86.0,86.0 0 0,1 -42.740103519485714,-10.115201625700543" fill="none" id="id19" stroke="none" /><text fill="#e1ed5e" style="font-size:6.75px; font-family:Arial;" text-anchor="middle"><textPath startOffset="22.20632615414155" xlink:href="#id19">July</textPath></text><path d="M 96.58105272829116 120.7198165907248 l -3.6754983136897836 22.274590652317013 a43.57579847053532,43.57579847053532 0 0,0 -0.7390269259146596,-0.12848930397036723 l 4.058374211076493 -22.20802276982564" fill="#ff4506" stroke="none" /><line stroke="#e1ed5e" stroke-width="0.3" x1="58.666819895761336" x2="56.23545636021788" y1="174.27360380694188" y2="178.64263932499728" /><path d="M 58.180547188652646 175.14741091055294 a86.0,86.0 0 0,1 -31.652253787137756,-30.449443065178592" fill="none" id="id20" stroke="none" /><text fill="#e1ed5e" style="font-size:6.75px; font-family:Arial;" text-anchor="middle"><textPath startOffset="22.20632615414155" xlink:href="#id20">August</textPath></text><path d="M 87.95078237400918 117.19931262002967 l -23.284365196664396 33.2366041188038 a61.581196581196586,61.581196581196586 0 0,0 -0.8629363462957956,-0.6156821707010245 l 23.85302887080908 -32.83087768625855" fill="#7fff26" stroke="none" /><path d="M 87.07902340077011 116.55440617244103 l -13.849023951311326 17.7434240996564 a43.50832208726946,43.50832208726946 0 0,0 -0.5864145033924523,-0.4658831474270622 l 14.152395947421136 -17.502407038224206" fill="#ff4306" stroke="none" /><path d="M 84.19399662182784 113.82643327865904 l -23.73930811766946 20.76615776406614 a52.54026090868196,52.54026090868196 0 0,0 -0.5895955253445838,-0.6858327967189558 l 24.09324615258483 -20.354447868185655" fill="#ffec16" stroke="none" /><path d="M 83.50135304334701 112.99209946851258 l -17.85471465523015 14.059954697625598 a43.72604588394062,43.72604588394062 0 0,0 -0.46056682188274306,-0.5953447023158216 l 18.094088294330962 -13.750532001196524" fill="#ff4806" stroke="none" /><path d="M 82.44556493220864 111.52570212397912 l -37.714415635758954 24.762125281676106 a66.11695906432749,66.11695906432749 0 0,0 -0.6164466206235372,-0.9567388446917588 l 38.13506711975953 -24.1092648370629" fill="#3dff2e" stroke="none" /><line stroke="#e1ed5e" stroke-width="0.3" x1="26.63291911575756" x2="22.317208475507996" y1="142.92168965132927" y2="145.44649492493687" /><path d="M 25.769776987707644 143.4266507060508 a86.0,86.0 0 0,1 -11.730757126820373,-40.83630448921669" fill="none" id="id21" stroke="none" /><text fill="#e1ed5e" style="font-size:6.75px; font-family:Arial;" text-anchor="middle"><textPath startOffset="21.46611528233685" xlink:href="#id21">September</textPath></text><path d="M 81.69416730710424 110.29060199501025 l -40.3576889857151 22.6870266847559 a67.29734592892487,67.29734592892487 0 0,0 -0.5589640338717352,-1.0146820835560937 l 40.74222942903835 -21.988974082801985" fill="#30ff32" stroke="none" /><path d="M 81.35079622478065 109.6543875284942 l -26.012529268114907 13.466260607028245 a50.2914979757085,50.2914979757085 0 0,0 -0.3913668332205504,-0.7722038909252452 l 26.240474771121722 -13.016502504400314" fill="#ffc412" stroke="none" /><line stroke="#e1ed5e" stroke-width="0.3" x1="15.007084014347285" x2="10.007500721073583" y1="101.09737516637583" y2="101.16192664675087" /><path d="M 14.007167355692545 101.11028546245083 a86.0,86.0 0 0,1 10.666146001902526,-42.60595125391555" fill="none" id="id22" stroke="none" /><text fill="#e1ed5e" style="font-size:6.75px; font-family:Arial;" text-anchor="middle"><textPath startOffset="22.20632615414155" xlink:href="#id22">October</textPath></text><line stroke="#e1ed5e" stroke-width="0.3" x1="26.266209847984243" x2="21.928928074336255" y1="57.71137044288968" y2="55.22380399835378" /><path d="M 25.398753493254645 57.2138571539825 a86.0,86.0 0 0,1 29.58750427330803,-30.4925239686951" fill="none" id="id23" stroke="none" /><text fill="#e1ed5e" style="font-size:6.75px; font-family:Arial;" text-anchor="middle"><textPath startOffset="21.46611528233685" xlink:href="#id23">November</textPath></text><line stroke="#e1ed5e" stroke-width="0.3" x1="56.76296977257108" x2="54.21961505331056" y1="26.818313649435495" y2="22.513508569990535" /><path d="M 56.25429882871898 25.957352633546506 a86.0,86.0 0 0,1 42.26535254187918,-11.944610805530505" fill="none" id="id24" stroke="none" /><text fill="#e1ed5e" style="font-size:6.75px; font-family:Arial;" text-anchor="middle"><textPath startOffset="22.20632615414155" xlink:href="#id24">December</textPath></text></svg>