<?xml version="1.0" encoding="utf-8" ?>
<svg baseProfile="full" height="200mm" version="1.1" viewBox="0,0,200,200" width="200mm" xmlns="http://www.w3.org/2000/svg" xmlns:ev="http://www.w3.org/2001/xml-events" xmlns:xlink="http://www.w3.org/1999/xlink"><defs /><rect fill="#1a1a1a" height="200" width="200" x="0" y="0" /><text alignment-baseline="middle" fill="#e1ed5e" style="dominant-baseline: central; font-size:9.0px; font-family:Arial;" text-anchor="middle" x="100.0" y="100.0">2022</text><line stroke="#e1ed5e" stroke-width="0.3" x1="100.0" x2="100.0" y1="15.0" y2="10.0" /><path d="M 100.0 14.0 a86.0,86.0 0 0,1 42.46469731375804,11.215312516191453" fill="none" id="id1" stroke="none" /><text fill="#e1ed5e" style="font-size:6.75px; font-family:Arial;" text-anchor="middle"><textPath startOffset="22.20632615414155" xlink:href="#id1">January</textPath></text><line stroke="#e1ed5e" stroke-width="0.3" x1="143.23703022742887" x2="145.7803849466894" y1="26.818313649435467" y2="22.513508569990506" /><path d="M 143.74570117128098 25.957352633546478 a86.0,86.0 0 0,1 28.547481713284135,27.462654790039114" fill="none" id="id2" stroke="none" /><text fill="#e1ed5e" style="font-size:6.75px; font-family:Arial;" text-anchor="middle"><textPath startOffset="19.985693538727396" xlink:href="#id2">February</textPath></text><line stroke="#e1ed5e" stroke-width="0.3" x1="172.23445277983987" x2="176.4835382374775" y1="55.19839476539836" y2="52.563006222186495" /><path d="M 173.08426987136738 54.67131705675599 a86.0,86.0 0 0,1 12.851231095245387,41.99856678651699" fill="none" id="id3" stroke="none" /><text fill="#e1ed5e" style="font-size:6.75px; font-family:Arial;" text-anchor="middle"><textPath startOffset="22.20632615414155" xlink:href="#id3">March</textPath></text><line stroke="#e1ed5e" stroke-width="0.3" x1="184.98032266829074" x2="189.97916517819016" y1="98.17113171792111" y2="98.06355123074" /><path d="M 185.9800911702706 98.14961562048488 a86.0,86.0 0 0,1 -9.607161424134198,41.387399972396054" fill="none" id="id4" stroke="none" /><text fill="#e1ed5e" style="font-size:6.75px; font-family:Arial;" text-anchor="middle"><textPath startOffset="21.466115282336823" xlink:href="#id4">April</textPath></text><line stroke="#e1ed5e" stroke-width="0.3" x1="174.80103733775053" x2="179.2010983576182" y1="140.37084112569926" y2="142.7455964860345" /><path d="M 175.68104954172406 140.8457921977663 a86.0,86.0 0 0,1 -30.038265399797805,32.042727171017184" fill="none" id="id5" stroke="none" /><text fill="#e1ed5e" style="font-size:6.75px; font-family:Arial;" text-anchor="middle"><textPath startOffset="22.206326154141568" xlink:href="#id5">May</textPath></text><line stroke="#e1ed5e" stroke-width="0.3" x1="143.8653032363475" x2="146.44561519142675" y1="172.8068346515853" y2="177.08958963109032" /><path d="M 144.38136562736335 173.6633856474863 a86.0,86.0 0 0,1 -40.68145358897372,12.25698825130547" fill="none" id="id6" stroke="none" /><text fill="#e1ed5e" style="font-size:6.75px; font-family:Arial;" text-anchor="middle"><textPath startOffset="21.466115282336833" xlink:href="#id6">June</textPath></text><line stroke="#e1ed5e" stroke-width="0.3" x1="102.19456741930631" x2="102.32365962044197" y1="184.97166512339345" y2="189.96999836594603" /><path d="M 102.22038585953345 185.97133177190398 a86.0,86.0 0 0,1 -42.740103519485714,-10.115201625700543" fill="none" id="id7" stroke="none" /><text fill="#e1ed5e" style="font-size:6.75px; font-family:Arial;" text-anchor="middle"><textPath startOffset="22.20632615414155" xlink:href="#id7">July</textPath></text><line stroke="#e1ed5e" stroke-width="0.3" x1="58.666819895761336" x2="56.23545636021788" y1="174.27360380694188" y2="178.64263932499728" /><path d="M 58.180547188652646 175.14741091055294 a86.0,86.0 0 0,1 -31.652253787137756,-30.449443065178592" fill="none" id="id8" stroke="none" /><text fill="#e1ed5e" style="font-size:6.75px; font-family:Arial;" text-anchor="middle"><textPath startOffset="22.20632615414155" xlink:href="#id8">August</textPath></text><line stroke="#e1ed5e" stroke-width="0.3" x1="26.63291911575756" x2="22.317208475507996" y1="142.92168965132927" y2="145.44649492493687" /><path d="M 25.769776987707644 143.4266507060508 a86.0,86.0 0 0,1 -11.730757126820373,-40.83630448921669" fill="none" id="id9" stroke="none" /><text fill="#e1ed5e" style="font-size:6.75px; font-family:Arial;" text-anchor="middle"><textPath startOffset="21.46611528233685" xlink:href="#id9">September</textPath></text><line stroke="#e1ed5e" stroke-width="0.3" x1="15.007084014347285" x2="10.007500721073583" y1="101.09737516637583" y2="101.16192664675087" /><path d="M 14.007167355692545 101.11028546245083 a86.0,86.0 0 0,1 10.666146001902526,-42.60595125391555" fill="none" id="id10" stroke="none" /><text fill="#e1ed5e" style="font-size:6.75px; font-family:Arial;" text-anchor="middle"><textPath startOffset="22.20632615414155" xlink:href="#id10">October</textPath></text><line stroke="#e1ed5e" stroke-width="0.3" x1="26.266209847984243" x2="21.928928074336255" y1="57.71137044288968" y2="55.22380399835378" /><path d="M 25.398753493254645 57.2138571539825 a86.0,86.0 0 0,1 29.58750427330803,-30.4925239686951" fill="none" id="id11" stroke="none" /><text fill="#e1ed5e" style="font-size:6.75px; font-family:Arial;" text-anchor="middle"><textPath startOffset="21.46611528233685" xlink:href="#id11">November</textPath></text><path d="M 82.95767976084542 87.72973835380427 l -20.325117308941493 -14.63383529182559 a46.04514980930466,46.04514980930466 0 0,0 0.4686461917456738,-0.6392328788659162 l 20.07020850468219 14.98153061436301" fill="#ff5107" stroke="none" /><path d="M 84.07557802195018 86.31012108654704 l -41.747641053281406 -35.889538202987985 a76.05383261805994,76.05383261805994 0 0,0 0.8619729032946221,-0.9853840355485382 l 41.12367628640894 36.602837794739465" fill="#3effb9" stroke="none" /><path d="M 84.31358615837235 86.03803664274999 l -21.411274819905472 -19.057474671120314 a49.66408955913148,49.66408955913148 0 0,0 0.5738717697398827,-0.6336835414364012 l 21.080059409549545 19.42321099982627" fill="#ff9a0e" stroke="none" /><path d="M 84.80347519578584 85.50635884689758 l -21.353517348881766 -20.36585481210902 a50.50831654630434,50.50831654630434 0 0,0 0.6054642026142862,-0.6239840825999803 l 20.999788882564363 20.73040309025912" fill="#ffaa0f" stroke="none" /><path d="M 85.05521093208273 85.24692304244772 l -15.100313972265191 -14.906606784720369 a42.21853924979895,42.21853924979895 0 0,0 0.5149942059537919,-0.512782657168802 l 14.841483966144086 15.164325292539282" fill="#ff0000" stroke="none" /><path d="M 85.31137513191541 84.99185889309783 l -18.12415356395128 -18.51840159128627 a46.911698900416425,46.911698900416425 0 0,0 0.5819658873412826,-0.5598507225313448 l 17.802704432997565 18.82763540057993" fill="#ff6309" stroke="none" /><path d="M 85.57189188830299 84.74124197986013 l -17.691385834347685 -18.709908007162174 a46.749675539241835,46.749675539241835 0 0,0 0.5894735960923665,-0.5478514644145598 l 17.366704354460463 19.01166405765138" fill="#ff5f08" stroke="none" /><path d="M 85.83668400450813 84.49514656593477 l -19.3519345407339 -21.184933585835953 a49.69318353729906,49.69318353729906 0 0,0 0.6365200172814385,-0.5714739562698936 l 18.98440353585649 21.51490655087513" fill="#ff9a0e" stroke="none" /><path d="M 86.37877921826538 84.01681056812373 l -40.863662345203856 -47.94956829562879 a84.0,84.0 0 0,0 1.1085698521635585,-0.9283953704247505 l 40.03223495608118 48.64586482344735" fill="#4dd2ff" stroke="none" /><path d="M 87.51073957382395 83.11751280151077 l -17.92706530291746 -24.233096288764862 a51.1433678628586,51.1433678628586 0 0,0 0.71224368899688,-0.5174753303596588 l 17.507276297566797 24.53809085394119" fill="#ffb610" stroke="none" /><path d="M 88.09926311788651 82.69761687909137 l -30.23159371081461 -43.95346455616041 a74.34656788196796,74.34656788196796 0 0,0 1.0606610821153961,-0.7161630973333694 l 29.470527934292676 44.46733956579244" fill="#3bff9d" stroke="none" /><line stroke="#e1ed5e" stroke-width="0.3" x1="56.76296977257108" x2="54.21961505331056" y1="26.818313649435495" y2="22.513508569990535" /><path d="M 56.25429882871898 25.957352633546506 a86.0,86.0 0 0,1 42.26535254187918,-11.944610805530505" fill="none" id="id12" stroke="none" /><text fill="#e1ed5e" style="font-size:6.75px; font-family:Arial;" text-anchor="middle"><textPath startOffset="22.20632615414155" xlink:href="#id12">December</textPath></text><path d="M 89.63071344664047 81.73862282372117 l -13.343687335021963 -23.49960203079 a48.023791134856246,48.023791134856246 0 0,0 0.7223599414731685,-0.40199252534730656 l 12.937203304476748 23.725809953697492" fill="#ff790b" stroke="none" /><path d="M 90.26544431104013 81.39251694778311 l -13.497450194128348 -25.800209455909982 a50.117554322295035,50.117554322295035 0 0,0 0.7678474995666092,-0.393321312636704 l 13.051342206972974 26.028723293859194" fill="#ffa20f" stroke="none" /><path d="M 90.58718382345135 81.22770947309562 l -14.052221663867222 -28.024810287891867 a52.35051714665627,52.35051714665627 0 0,0 0.8090117619501614,-0.3969785580894349 l 13.567738634906636 28.26254400611613" fill="#ffcd13" stroke="none" /><path d="M 91.23893434514133 80.91482961587045 l -10.540651666189717 -22.961833746494726 a46.26561193697101,46.26561193697101 0 0,0 0.7266298150900045,-0.32601761728016687 l 10.143839732632937 23.139871694291422" fill="#ff5507" stroke="none" /><path d="M 92.23578459929587 80.48803036053334 l -15.624005212478064 -39.26412388366938 a63.258501668086595,63.258501668086595 0 0,0 1.0151990485257698,-0.3938814587644782 l 14.945822998952616 39.5272480463244" fill="#75ff27" stroke="none" /></svg>